<?xml version="1.0" encoding="utf-8"?>
<!-- Generator: Adobe Illustrator 27.7.0, SVG Export Plug-In . SVG Version: 6.00 Build 0)  -->
<svg version="1.1" id="Layer_1" xmlns="http://www.w3.org/2000/svg" xmlns:xlink="http://www.w3.org/1999/xlink" x="0px" y="0px"
	 viewBox="0 0 1000 1000" style="enable-background:new 0 0 1000 1000;" xml:space="preserve">
<style type="text/css">
	.st0{fill:url(#head_00000122706570338106132840000015513594287319902861_);}
</style>
<linearGradient id="head_00000152242506615323980480000013041693524547453571_" gradientUnits="userSpaceOnUse" x1="500" y1="-9.094947e-13" x2="500" y2="1000" gradientTransform="matrix(1 0 0 -1 0 1000)">
	<stop  offset="0" style="stop-color:#579AFC"/>
	<stop  offset="1" style="stop-color:#7032F5"/>
</linearGradient>
<polygon id="head" style="fill:url(#head_00000152242506615323980480000013041693524547453571_);" points="808.8,191.2 808.8,528.5 
	670.1,667.3 670.1,759.2 648.9,780.4 648.9,658.5 787.6,519.7 787.6,212.4 668.5,331.5 331.5,331.5 212.4,212.4 212.4,519.7 
	351.1,658.5 351.1,780.4 329.9,759.2 329.9,667.3 191.2,528.5 191.2,191.2 0,0 0,500 105.8,605.8 105.8,262.9 70.7,227.8 
	70.7,197.8 127,254.1 127,627 408.4,908.4 408.4,650.3 276.6,518.5 276.6,382.7 297.9,403.9 297.9,509.8 429.6,641.5 429.6,929.6 
	500,1000 570.4,929.6 570.4,641.5 702.1,509.8 702.1,403.9 723.3,382.7 723.3,518.5 591.6,650.3 591.6,908.4 873,627 873,254.1 
	929.3,197.8 929.3,227.8 894.2,262.9 894.2,605.8 1000,500 1000,0 "/>
</svg>
