<?xml version="1.0" encoding="UTF-8" standalone="no"?>
<!DOCTYPE svg PUBLIC "-//W3C//DTD SVG 1.1//EN" "http://www.w3.org/Graphics/SVG/1.1/DTD/svg11.dtd">
<svg xmlns:dc="http://purl.org/dc/elements/1.1/" xmlns:xl="http://www.w3.org/1999/xlink" xmlns="http://www.w3.org/2000/svg" version="1.1" viewBox="135 245.5 400 400" width="400" height="400">
  <defs>
    <clipPath id="artboard_clip_path">
      <path d="M 135 245.5 L 535 245.5 L 535 645.5 L 135 645.5 Z"/>
    </clipPath>
  </defs>
  <g id="Canvas_1" stroke-dasharray="none" fill-opacity="1" stroke-opacity="1" stroke="none" fill="none">
    <title>Canvas 1</title>
    <g id="Canvas_1_Layer_1" clip-path="url(#artboard_clip_path)">
      <title>Layer 1</title>
      <g id="Graphic_4">
        <path d="M 274.0489 483.78873 L 334.66865 340.40108 C 334.93024 339.843 335.06976 339.2152 335.0872 338.6048 C 335.0872 337.977 334.98256 337.3666 334.75585 336.7911 C 334.5117 336.2156 334.1629 335.6924 333.7269 335.25642 C 333.29093 334.82043 332.7503 334.47164 332.1748 334.26237 C 331.5993 334.03566 330.97147 333.89614 330.3611 333.89614 L 182.14269 333.89614 C 181.18352 333.8264 180.2069 334.07054 179.40469 334.59372 C 178.58503 335.1169 177.9572 335.8668 177.59098 336.77366 L 154.0302 393.57415 C 153.78604 394.1322 153.64653 394.76003 153.64653 395.3704 C 153.64653 395.99824 153.75117 396.6086 153.99532 397.18412 C 154.23947 397.75963 154.58826 398.26537 155.02425 398.70136 C 155.47768 399.13735 156.00086 399.4687 156.57637 399.6954 C 157.13443 399.93957 157.74481 400.06164 158.3552 400.06164 L 230.13622 400.06164 C 231.33955 400.06164 232.508 400.54995 233.36253 401.4045 C 234.21707 402.259 234.68793 403.42747 234.68793 404.6308 C 234.68793 405.2586 234.56586 405.869 234.3217 406.46194 L 174.48674 550.58206 C 174.22515 551.15756 174.08563 551.76795 174.08563 552.3958 C 174.08563 553.0236 174.19027 553.634 174.43442 554.2095 C 174.67858 554.785 175.02737 555.3082 175.4808 555.74416 C 175.93422 556.18014 176.4574 556.5115 177.05035 556.7382 C 177.60842 556.98236 178.2188 557.10444 178.82918 557.10444 L 335.90685 557.10444 C 336.88347 557.1742 337.84264 556.9126 338.6623 556.3894 C 339.48195 555.8662 340.10978 555.0989 340.45857 554.1746 L 364.2286 496.81605 C 364.45533 496.24055 364.55997 495.63016 364.54253 495.0198 C 364.5251 494.4094 364.38558 493.799 364.124 493.24095 C 363.8624 492.6829 363.49616 492.17714 363.04273 491.77603 C 362.5893 491.3575 362.0487 491.0436 361.47318 490.85174 C 360.9151 490.6076 360.30473 490.4855 359.69435 490.4855 L 278.35647 490.4855 C 277.15314 490.4855 275.9847 489.9972 275.13016 489.14266 C 274.27562 488.2881 273.80476 487.1197 273.80476 485.91635 C 273.735 485.1839 273.83964 484.45144 274.0838 483.7713 Z" fill="#0e1017"/>
      </g>
      <g id="Graphic_5">
        <path d="M 309.15465 470.8312 L 371.5881 470.8312 C 372.5124 470.8486 373.4367 470.587 374.204 470.0813 C 374.97136 469.57553 375.58174 468.82563 375.9131 467.9711 L 403.2408 402.9566 C 403.5896 402.10207 404.18254 401.35217 404.9499 400.8464 C 405.7172 400.34068 406.6415 400.06164 407.5658 400.0965 L 488.084 400.0965 C 489.0432 400.1663 490.0024 399.92213 490.822 399.39894 C 491.6417 398.87576 492.2695 398.12586 492.63574 397.219 L 515.95236 340.4185 C 516.21396 339.843 516.3535 339.23263 516.3535 338.6048 C 516.3535 337.977 516.24883 337.3666 516.0047 336.7911 C 515.7605 336.2156 515.41174 335.6924 514.9583 335.25642 C 514.5049 334.82043 513.9817 334.4891 513.38876 334.26237 C 512.8307 334.0182 512.2203 333.89614 511.6099 333.89614 L 362.17076 333.89614 C 361.2116 333.8264 360.23497 334.07054 359.43275 334.59372 C 358.6131 335.1169 357.98528 335.8668 357.61905 336.77366 L 304.5506 464.4309 C 304.28902 464.98894 304.1495 465.61676 304.13207 466.22715 C 304.13207 466.85497 304.2367 467.46535 304.4634 468.04086 C 304.69013 468.61636 305.05636 469.13955 305.49235 469.57553 C 305.92834 470.0115 306.46896 470.3603 307.04446 470.5696 C 307.70717 470.7963 308.40475 470.90094 309.10233 470.8486 Z" fill="#0e1017"/>
      </g>
    </g>
  </g>
</svg>
