<svg width="144" height="48" viewBox="0 0 144 48" fill="none" xmlns="http://www.w3.org/2000/svg">
<path d="M13.5755 15.4889C13.5755 14.9051 14.0375 14.4384 14.6136 14.4093L11.7641 14.7244C11.3333 14.7244 10.9859 15.0723 10.9859 15.5031L11.6078 19.752L1.91926 11.1832L11.5443 2.67388L11.6344 2.58948L11.0104 6.83895C11.0104 7.26921 11.3594 7.61815 11.7891 7.61815H38.9729L36.1719 11.1149C35.9027 11.4499 35.9573 11.9405 36.2927 12.2093C36.436 12.3244 36.6084 12.3807 36.7787 12.3807C37.0068 12.3807 37.2328 12.2807 37.3864 12.0879L41.2021 7.32601C41.3896 7.09215 41.4255 6.77228 41.2969 6.50201C41.1667 6.23215 40.8932 6.06028 40.5937 6.06028H12.5693L13.1911 0.781615C13.1911 0.470682 13.0062 0.189481 12.7214 0.0660145C12.4349 -0.0569189 12.1031 0.00308141 11.8776 0.215481L0.269268 10.5993C0.266664 10.6009 0.266664 10.6036 0.26406 10.6056C0.248435 10.6203 0.227601 10.626 0.213539 10.6421C-0.083336 10.954 -0.0692734 11.4473 0.243227 11.7431L11.8516 22.1264C12.0781 22.3395 12.4088 22.3988 12.6953 22.2764C12.9818 22.1525 13.1667 21.8712 13.1667 21.5603L12.5432 16.366L14.5885 16.564C14.0251 16.5217 13.5755 16.064 13.5755 15.4889Z" fill="#110B09"/>
<path d="M31.3063 24.9832C31.0807 24.7703 30.7484 24.7103 30.4625 24.8332C30.1771 24.9572 29.9921 25.2384 29.9921 25.5488L30.6145 30.7431L28.5131 30.5405C29.0921 30.5665 29.5563 31.0353 29.5563 31.6212C29.5563 32.2129 29.0833 32.6889 28.4964 32.7056L31.3932 32.3859C31.8245 32.3859 32.1735 32.0369 32.1735 31.6061L31.5495 27.3572L41.238 35.9265L31.6136 44.4358L31.5251 44.5197L32.1473 40.2702C32.1473 39.84 31.7979 39.4916 31.3688 39.4916H4.18646L6.98698 35.9947C7.25522 35.6598 7.20208 35.1687 6.86563 34.8999C6.72136 34.7853 6.55104 34.7296 6.37918 34.7296C6.15104 34.7296 5.92448 34.8291 5.77084 35.0213L1.95574 39.7832C1.76823 40.0171 1.73178 40.3374 1.86198 40.6077C1.99063 40.8775 2.26407 41.0499 2.56355 41.0499H30.5901L29.9661 46.3275C29.9661 46.639 30.1511 46.9202 30.4375 47.0431C30.724 47.1661 31.0547 47.1072 31.2803 46.8937L42.8896 36.5108C42.8907 36.5088 42.8917 36.5062 42.8932 36.5041C42.9088 36.4895 42.9297 36.4832 42.9453 36.4676C43.2412 36.1551 43.2265 35.6614 42.914 35.3666L31.3063 24.9832Z" fill="#110B09"/>
<path d="M29.5562 31.6212C29.5562 31.0354 29.0921 30.5666 28.5131 30.5406C28.4964 30.539 28.4828 30.5307 28.4661 30.5307H16.724L28.9521 16.1968C29.2281 15.8734 29.2906 15.4182 29.112 15.0322C28.9338 14.6463 28.5469 14.3988 28.1208 14.3988H14.6667C14.6473 14.3988 14.6328 14.4083 14.6136 14.4094C14.0374 14.4384 13.5755 14.9051 13.5755 15.489C13.5755 16.064 14.0251 16.5218 14.5885 16.564C14.6156 16.566 14.6396 16.5796 14.6667 16.5796H25.7579L13.5302 30.9135C13.2542 31.2374 13.1911 31.6916 13.3697 32.078C13.5479 32.464 13.9349 32.7119 14.3593 32.7119H28.4661C28.4765 32.7119 28.486 32.7056 28.4964 32.7056C29.0833 32.689 29.5562 32.213 29.5562 31.6212Z" fill="#19B5EC"/>
<path d="M69.4661 33.0947H53.888L69.7328 14.2245C69.9984 13.9125 70.1328 13.6453 70.1328 13.2895V13.2453C70.1328 12.7999 69.6448 12.3546 69.1093 12.3546H52.0625C51.5303 12.3546 51.0849 12.7999 51.0849 13.3338C51.0849 13.8682 51.5303 14.3135 52.0625 14.3135H67.0183L51.1735 33.1838C50.9063 33.4947 50.7724 33.7619 50.7724 34.1182V34.163C50.7724 34.6078 51.2631 35.0531 51.7969 35.0531H69.4661C69.9984 35.0531 70.4437 34.6078 70.4437 34.0739C70.4437 33.539 69.9984 33.0947 69.4661 33.0947Z" fill="#110B09"/>
<path d="M75.5973 22.6359C75.9984 17.6062 79.4697 13.8228 83.9661 13.8228C89.1719 13.8228 91.7979 18.0515 92.1104 22.6359H75.5973ZM84.0547 11.8207C77.9131 11.8207 73.2839 17.0723 73.2839 23.6594V23.7483C73.2839 30.8244 78.4469 35.5869 84.4115 35.5869C88.5052 35.5869 91.0417 34.1182 93.2672 31.8927C93.5339 31.626 93.624 31.3583 93.624 31.1364C93.624 30.5578 93.1328 30.113 92.5547 30.113C92.2432 30.113 92.0208 30.2463 91.8421 30.4239C90.0183 32.2046 87.7484 33.539 84.5 33.539C80.0495 33.539 75.9984 30.2463 75.5973 24.5942H93.4011C93.9349 24.5942 94.4688 24.1046 94.4688 23.5698C94.4688 17.0723 90.4193 11.8207 84.0547 11.8207Z" fill="#110B09"/>
<path d="M101.59 22.6359C101.991 17.6062 105.463 13.8228 109.958 13.8228C115.164 13.8228 117.791 18.0515 118.103 22.6359H101.59ZM110.047 11.8207C103.905 11.8207 99.276 17.0723 99.276 23.6594V23.7483C99.276 30.8244 104.437 35.5869 110.403 35.5869C114.496 35.5869 117.034 34.1182 119.259 31.8927C119.526 31.626 119.616 31.3583 119.616 31.1364C119.616 30.5578 119.125 30.113 118.547 30.113C118.236 30.113 118.013 30.2463 117.835 30.4239C116.01 32.2046 113.741 33.539 110.491 33.539C106.042 33.539 101.991 30.2463 101.59 24.5942H119.393C119.927 24.5942 120.459 24.1046 120.459 23.5698C120.459 17.0723 116.41 11.8207 110.047 11.8207Z" fill="#110B09"/>
<path d="M143.689 33.4056L134.788 22.4129L143.109 13.9566C143.376 13.6894 143.467 13.5113 143.467 13.2009C143.467 12.6212 143.021 12.1764 142.443 12.1764C142.131 12.1764 141.908 12.266 141.685 12.4878L127.755 26.9082V6.99877C127.755 6.37597 127.266 5.88636 126.643 5.88636C126.019 5.88636 125.575 6.37597 125.575 6.99877V34.1181C125.575 34.7858 126.064 35.2306 126.687 35.2306C127.31 35.2306 127.755 34.7858 127.755 34.1181V29.5337L133.273 23.9706L141.997 34.741C142.308 35.0973 142.531 35.2306 142.932 35.2306C143.555 35.2306 144 34.8301 144 34.2072C144 33.8952 143.912 33.6728 143.689 33.4056Z" fill="#110B09"/>
</svg>
