<svg width="565" height="412" viewBox="0 0 565 412" fill="none" xmlns="http://www.w3.org/2000/svg">
<path d="M114.734 232.801C113.408 234.075 113.969 234.892 113.969 234.892L114.785 237.543C111.215 235.759 107.135 233.871 102.443 231.831C102.035 231.679 101.678 231.525 101.321 231.321C102.392 228.312 103.055 225.609 103.31 223.875C104.126 217.449 110.807 214.44 110.807 214.44C115.295 217.296 116.111 223.263 116.264 226.272C116.366 229.281 116.009 231.525 114.734 232.801ZM166.907 263.146C168.182 261.871 168.539 259.627 168.437 256.618C168.335 253.609 167.519 247.592 162.98 244.786C162.98 244.786 156.299 247.796 155.483 254.222C155.126 257.18 153.392 262.841 150.791 268.145C153.749 270.134 157.778 272.327 163.694 274.775C165.683 275.591 167.672 276.254 169.61 276.815L166.142 265.289C166.142 265.236 165.581 264.421 166.907 263.146ZM266 0.698975C161.246 0.698975 76.28 85.665 76.28 190.419C76.28 201.078 77.147 211.533 78.83 221.733C83.165 223.467 88.622 225.813 95.915 228.975C96.884 225.609 97.904 222.294 98.873 219.642C99.995 216.48 102.239 212.553 103.718 208.932C106.268 202.761 109.481 194.244 109.787 190.572C110.195 185.268 111.623 163.134 109.43 152.016C107.237 140.898 104.126 126.924 106.88 119.631C109.634 112.338 119.885 112.287 123.608 113.97C123.608 113.97 125.087 115.347 129.116 116.061C133.145 116.826 135.185 117.03 135.083 119.274C134.981 121.569 129.779 124.986 125.393 127.179C121.007 129.372 120.599 131.667 120.803 134.421C121.058 137.124 124.883 142.581 127.892 145.131C130.901 147.681 132.227 154.821 131.819 158.391C131.411 161.91 130.187 170.325 131.207 171.957C132.176 173.64 136.205 177.669 135.644 183.534C135.083 189.399 136.256 195.927 132.737 196.437C132.737 196.437 132.38 193.326 131.921 189.909C131.462 186.492 130.085 179.964 126.056 177.363C126.056 177.363 130.85 184.809 130.748 190.317C130.646 195.825 131.615 200.109 131.972 207.81C132.329 215.562 125.954 231.933 120.752 235.248C120.752 235.248 119.63 236.115 120.242 240.349C141.662 251.977 140.03 257.944 146.507 264.574C147.986 259.729 149.567 254.017 151.046 249.937C152.168 246.775 154.412 242.848 155.891 239.227C158.441 233.056 161.654 224.539 161.96 220.867C162.368 215.563 163.796 193.429 161.603 182.311C159.41 171.193 156.299 157.219 159.053 149.926C161.807 142.633 172.058 142.582 175.781 144.265C175.781 144.265 177.26 145.642 181.289 146.356C185.318 147.121 187.358 147.325 187.256 149.569C187.154 151.864 181.952 155.281 177.566 157.474C173.18 159.667 172.772 161.962 172.976 164.716C173.231 167.419 177.056 172.876 180.065 175.426C183.074 177.976 184.4 185.116 183.992 188.686C183.584 192.205 182.36 200.62 183.38 202.252C184.349 203.935 188.378 207.964 187.817 213.829C187.256 219.694 188.429 226.223 184.91 226.732C184.91 226.732 184.553 223.621 184.094 220.204C183.635 216.787 182.258 210.26 178.229 207.658C178.229 207.658 183.023 215.104 182.921 220.612C182.819 226.12 183.788 230.404 184.145 238.105C184.502 245.857 178.127 262.228 172.925 265.543C172.925 265.543 171.701 266.462 172.466 271.052C172.976 274.112 173.435 276.406 173.639 277.631C182.207 279.212 190.775 278.651 199.496 277.324C194.447 277.324 190.367 276.916 190.367 276.457C190.367 275.284 191.081 274.673 196.793 274.825C202.505 274.978 213.674 275.182 218.876 265.186C222.038 259.015 226.679 241.777 230.759 231.475C232.646 226.732 236.216 220.816 238.664 215.41C242.846 206.18 248.099 193.327 248.558 187.768C249.221 179.761 251.567 146.509 247.997 129.832C244.427 113.155 239.276 92.143 243.815 81.178C248.354 70.213 265.082 70.162 271.202 72.661C271.202 72.661 273.598 74.701 280.178 75.823C286.758 76.945 290.123 77.251 289.919 80.668C289.715 84.085 281.249 89.287 274.058 92.551C266.868 95.866 266.204 99.334 266.561 103.414C266.918 107.494 273.243 115.654 278.189 119.479C283.136 123.304 285.279 134.065 284.616 139.369C283.953 144.673 281.964 157.27 283.595 159.769C285.226 162.268 291.806 168.388 290.837 177.16C289.868 185.932 291.806 195.775 286.043 196.54C286.043 196.54 285.482 191.848 284.717 186.748C283.952 181.597 281.708 171.805 275.18 167.878C275.18 167.878 283.034 179.098 282.83 187.36C282.626 195.622 284.258 202.048 284.819 213.676C285.38 225.304 274.975 249.886 266.459 254.935C266.459 254.935 264.47 256.261 265.745 263.247C267.019 270.184 268.04 274.518 268.04 274.518C274.007 273.447 275.18 276.507 275.282 278.904C288.542 285.942 304.607 298.182 320.162 311.442C336.992 325.773 366.776 299.508 410.686 313.38C442.357 274.874 455.567 244.173 455.567 190.317C455.72 85.614 370.754 0.698975 266 0.698975ZM256.769 251.313C258.911 249.426 259.472 246.06 259.268 241.521C259.064 236.982 257.738 227.955 250.394 223.722C250.394 223.722 239.429 228.261 238.103 237.9C237.032 245.703 229.178 266.052 218.825 273.855C232.697 271.254 246.977 269.316 261.818 273.447L255.545 254.425C255.545 254.425 254.627 253.252 256.769 251.313Z" fill="url(#paint0_linear_110_5)"/>
<path d="M0.953022 404.671V386.412H1.05502C12.326 392.328 24.362 395.541 34.511 395.541C43.232 395.541 47.669 393.145 47.669 389.014C47.669 384.781 44.354 383.506 28.289 380.803C13.448 378.406 0.749023 373.866 0.749023 359.331C0.749023 346.479 11.714 335.515 34.715 335.515C43.946 335.515 53.993 337.707 62.255 341.737V359.893H62.153C53.636 354.793 42.569 351.58 33.236 351.58C24.005 351.58 20.18 354.079 20.18 358.007C20.18 363.107 27.116 363.616 39.254 365.759C54.095 368.36 67.049 372.49 67.049 388.046C67.049 398.399 60.113 411.557 33.899 411.557C20.741 411.606 10.49 408.802 0.953022 404.671Z" fill="black"/>
<path d="M69.65 381.67V337.3H88.724V380.395C88.724 391.258 96.578 394.675 105.503 394.675C114.428 394.675 122.384 391.462 122.384 380.803V337.3H141.356V381.262C141.356 403.753 126.005 411.811 105.401 411.811C84.644 411.811 69.65 403.701 69.65 381.67Z" fill="black"/>
<path d="M149.618 337.3H190.112C209.084 337.3 218.315 346.225 218.315 362.8C218.315 374.632 213.215 382.486 203.474 386.005L221.273 409.821H199.394L185.012 389.625H168.59V409.821H149.618V337.3ZM188.48 374.07C196.436 374.07 199.241 369.633 199.241 363.615C199.241 357.699 196.436 353.364 188.48 353.364H168.59V374.07H188.48Z" fill="black"/>
<path d="M223.721 337.3H242.693V409.821H223.721V337.3Z" fill="black"/>
<path d="M247.742 373.866C247.742 352.753 262.481 335.514 289.205 335.514C301.241 335.514 310.574 339.543 316.337 343.725V362.085H316.235C308.279 356.78 300.578 352.241 289.817 352.241C275.537 352.241 267.019 361.167 267.019 373.814C267.019 386.156 275.078 394.979 289.714 394.979C300.475 394.979 308.483 391.154 316.235 385.34H316.337V403.903C311.033 407.524 300.986 411.655 287.93 411.655C260.492 411.606 247.742 394.827 247.742 373.866Z" fill="black"/>
<path d="M341.837 337.3H371.775L398.397 409.821H378.609L372.795 393.757H340.46L334.646 409.821H315.062L341.837 337.3ZM345.968 378.559H367.44L358.617 354.079H354.792L345.968 378.559Z" fill="black"/>
<path d="M413.747 354.078H387.941L388.655 337.3H457.862L458.473 354.078H432.667V409.821H413.695V354.078H413.747Z" fill="black"/>
<path d="M474.692 337.3H504.629L531.251 409.821H511.463L505.649 393.757H473.315L467.502 409.821H447.918L474.692 337.3ZM478.823 378.559H500.294L491.471 354.079H487.647L478.823 378.559Z" fill="black"/>
<path d="M540.716 362.555H536.663V342.706H546.062C547.527 342.706 548.756 342.942 549.749 343.414C550.742 343.87 551.491 344.529 551.995 345.392C552.5 346.238 552.752 347.223 552.752 348.346C552.752 349.745 552.28 350.958 551.336 351.983C550.392 352.992 549.082 353.611 547.405 353.839C548.268 354.164 548.96 354.653 549.48 355.304C550.018 355.938 550.726 357.021 551.604 358.551L553.948 362.555H548.943L547.308 359.356C546.543 357.924 545.892 356.866 545.354 356.183C544.817 355.483 544.28 355.011 543.743 354.767C543.206 354.522 542.547 354.4 541.766 354.4H540.716V362.555ZM540.716 345.855V351.251H543.963C545.428 351.251 546.543 351.064 547.308 350.689C548.073 350.299 548.455 349.534 548.455 348.395C548.455 347.613 548.121 346.995 547.454 346.539C546.787 346.083 545.753 345.855 544.354 345.855H540.716ZM545.11 333.844C547.666 333.844 550.075 334.324 552.337 335.284C554.616 336.228 556.618 337.571 558.343 339.312C560.084 341.038 561.427 343.04 562.371 345.318C563.331 347.581 563.812 349.99 563.812 352.545C563.812 355.93 562.973 359.063 561.297 361.944C559.637 364.809 557.366 367.079 554.485 368.756C551.621 370.416 548.496 371.246 545.11 371.246C541.725 371.246 538.592 370.416 535.711 368.756C532.846 367.079 530.576 364.809 528.899 361.944C527.239 359.063 526.409 355.93 526.409 352.545C526.409 349.159 527.239 346.034 528.899 343.17C530.576 340.289 532.846 338.019 535.711 336.358C538.592 334.682 541.725 333.844 545.11 333.844ZM545.159 337.506C542.441 337.506 539.926 338.181 537.615 339.532C535.304 340.867 533.473 342.69 532.122 345.001C530.771 347.312 530.096 349.827 530.096 352.545C530.096 355.263 530.771 357.786 532.122 360.113C533.489 362.424 535.328 364.247 537.64 365.582C539.951 366.917 542.457 367.584 545.159 367.584C547.91 367.584 550.424 366.917 552.703 365.582C554.998 364.231 556.813 362.4 558.147 360.089C559.482 357.778 560.149 355.263 560.149 352.545C560.149 349.811 559.482 347.288 558.147 344.977C556.813 342.665 554.998 340.842 552.703 339.508C550.408 338.173 547.894 337.506 545.159 337.506Z" fill="black"/>
<defs>
<linearGradient id="paint0_linear_110_5" x1="265.924" y1="0.698053" x2="265.924" y2="315.87" gradientUnits="userSpaceOnUse">
<stop stop-color="#F9B233"/>
<stop offset="1" stop-color="#BE1622"/>
</linearGradient>
</defs>
</svg>
