<svg xmlns="http://www.w3.org/2000/svg" viewBox="0 0 100 100"><defs><radialGradient id="a" cx="55%" cy="40%" r="55%" fx="55%" fy="40%"><stop offset="0%" stop-color="#ff0070"/><stop offset="100%" stop-color="#c4006e"/></radialGradient></defs><path fill="url(#a)" d="M0 17.175c-9.202 0-16.672-7.447-16.695-16.653-.024-9.221 7.431-16.715 16.652-16.741 9.22-.022 16.715 7.433 16.74 16.653a16.7 16.7 0 0 1-.456 3.916 6.11 6.11 0 0 0-5.584.23L5.736-1.949a4.13 4.13 0 0 0 .99-2.532 4.1 4.1 0 0 0-.654-2.392 4.116 4.116 0 0 0-7.16.446 4.12 4.12 0 0 0 .066 3.72L-4.982.274l-1.23-1.634-4.53 3.41 3.41 4.531 4.53-3.41-1.229-1.633 4.004-3.014a4.12 4.12 0 0 0 4.523.508l4.899 6.503c-1.956 1.916-2.451 4.978-1.009 7.45.285.489.629.917 1.014 1.294a16.63 16.63 0 0 1-9.356 2.896z" transform="matrix(2.5 0 0 -2.5 47 54)"/><path d="M108.7 18.695c-5.412 6.727-15.26 7.803-21.985 2.387C79.99 15.66 78.918 5.83 84.333-.907c5.412-6.722 15.25-7.792 21.982-2.37 6.733 5.398 7.793 15.25 2.385 21.973"/><path fill="#d0147a" d="M6.988 52.835q-.007.306-.01.615v.543c.16 18.634 16.782 37.77 39.365 37.83h.15c22.86-.023 38.87-19.146 39.082-38.485v-.52c-.157-6.69-8.57 5.17-21.757 12.382.077 2.042-.44 4.13-1.638 5.98-3.08 4.767-9.465 6.137-14.23 3.05a10.25 10.25 0 0 1-3.67-4.165c-18.49-1.27-32.058-19.418-36.07-19.42-.76 0-1.18.65-1.222 2.19" opacity=".5"/></svg>