<svg width="40" height="40" viewBox="0 0 40 40" fill="none" xmlns="http://www.w3.org/2000/svg">
<rect width="40" height="40" fill="#501C51"/>
<path d="M13.0794 23.1112C13.0794 24.5157 11.9442 25.6508 10.5397 25.6508C9.13516 25.6508 8 24.5157 8 23.1112C8 21.7066 9.13516 20.5715 10.5397 20.5715H13.0794V23.1112ZM14.3492 23.1112C14.3492 21.7066 15.4844 20.5715 16.8889 20.5715C18.2934 20.5715 19.4286 21.7066 19.4286 23.1112V29.4604C19.4286 30.8649 18.2934 32 16.8889 32C15.4844 32 14.3492 30.8649 14.3492 29.4604V23.1112Z" fill="#E01E5A"/>
<path d="M16.8932 13.0708C15.491 13.0708 14.3577 11.9376 14.3577 10.5354C14.3577 9.13325 15.491 8 16.8932 8C18.2953 8 19.4286 9.13325 19.4286 10.5354V13.0708H16.8932ZM16.8932 14.3577C18.2953 14.3577 19.4286 15.491 19.4286 16.8932C19.4286 18.2953 18.2953 19.4286 16.8932 19.4286H10.5354C9.13325 19.4286 8 18.2953 8 16.8932C8 15.491 9.13325 14.3577 10.5354 14.3577H16.8932Z" fill="#36C5F0"/>
<path d="M26.9206 16.8932C26.9206 15.491 28.0558 14.3577 29.4603 14.3577C30.8649 14.3577 32 15.491 32 16.8932C32 18.2953 30.8649 19.4286 29.4603 19.4286H26.9206V16.8932ZM25.6508 16.8932C25.6508 18.2953 24.5156 19.4286 23.1111 19.4286C21.7066 19.4286 20.5714 18.2953 20.5714 16.8932V10.5354C20.5714 9.13325 21.7066 8 23.1111 8C24.5156 8 25.6508 9.13325 25.6508 10.5354V16.8932Z" fill="#2EB67D"/>
<path d="M23.1069 26.9207C24.509 26.9207 25.6423 28.0558 25.6423 29.4604C25.6423 30.8649 24.509 32 23.1069 32C21.7047 32 20.5714 30.8649 20.5714 29.4604V26.9207H23.1069ZM23.1069 25.6508C21.7047 25.6508 20.5714 24.5157 20.5714 23.1112C20.5714 21.7066 21.7047 20.5715 23.1069 20.5715H29.4646C30.8668 20.5715 32 21.7066 32 23.1112C32 24.5157 30.8668 25.6508 29.4646 25.6508H23.1069Z" fill="#ECB22E"/>
</svg>
