<svg width="251" height="53" viewBox="0 0 251 53" fill="none" xmlns="http://www.w3.org/2000/svg">
<path d="M23.15 10.52H16.28L0 51.55H8L14.44 34.81L15.85 31.16C16.97 28.28 18.25 24.69 19.68 20.4H19.8C21.23 24.67 22.51 28.26 23.63 31.16L25.04 34.81L31.48 51.55H39.42L23.15 10.52ZM62.04 10.52C65.09 10.52 67.54 10.83 69.4 11.44C70.79 11.89 72 12.48 73.02 13.22C74.04 13.94 74.88 14.74 75.53 15.64C76.21 16.52 76.7 17.46 77 18.46C77.33 19.44 77.49 20.43 77.49 21.43C77.49 23.21 77.09 24.84 76.29 26.34C75.49 27.81 74.17 29.04 72.34 30.02V30.14C73.36 30.49 74.29 30.94 75.13 31.49C75.99 32.02 76.71 32.67 77.31 33.42C77.92 34.16 78.39 34.99 78.72 35.93C79.07 36.87 79.24 37.92 79.24 39.09C79.24 40.09 79.08 41.17 78.75 42.31C78.44 43.46 77.89 44.57 77.09 45.65C76.29 46.71 75.23 47.69 73.9 48.59C72.57 49.49 70.89 50.21 68.87 50.74C68.36 50.86 67.8 50.97 67.18 51.08C66.59 51.18 65.92 51.27 65.19 51.36C64.45 51.42 63.64 51.47 62.74 51.51C61.84 51.53 60.83 51.54 59.7 51.54H47.77V10.52H62.03M62.06 27.41C64.1 27.41 65.63 27.21 66.63 26.8C67.75 26.33 68.55 25.69 69.02 24.87C69.51 24.03 69.76 23.09 69.76 22.05C69.76 20.97 69.48 20.01 68.93 19.17C68.38 18.31 67.44 17.68 66.11 17.27C65.56 17.11 64.91 16.99 64.18 16.93C63.44 16.85 62.53 16.81 61.45 16.81H55.29V27.42H62.07M60.2 45.26C61.51 45.26 62.63 45.23 63.57 45.17C64.51 45.09 65.32 44.96 65.99 44.8C67.03 44.58 67.9 44.28 68.6 43.91C69.29 43.52 69.86 43.09 70.29 42.62C70.72 42.13 71.03 41.6 71.21 41.03C71.39 40.44 71.49 39.81 71.49 39.16C71.49 38.02 71.17 37.01 70.54 36.15C69.91 35.29 68.91 34.65 67.57 34.22C66.98 34.04 66.28 33.9 65.48 33.82C64.68 33.74 63.66 33.7 62.41 33.7H55.3V45.26H60.21H60.2ZM123.68 10.52H116.17V34.01C116.17 36.91 115.82 39.18 115.13 40.82C114.35 42.64 113.22 43.96 111.73 44.77C110.24 45.57 108.48 45.97 106.46 45.97C104.44 45.97 102.68 45.57 101.19 44.77C99.7 43.95 98.56 42.63 97.79 40.82C97.1 39.18 96.75 36.92 96.75 34.01V10.52H89.24V34.68C89.24 36.4 89.33 37.95 89.52 39.34C89.72 40.73 90.05 42 90.5 43.14C91.05 44.57 91.79 45.86 92.71 47C93.63 48.12 94.74 49.09 96.05 49.88C97.36 50.66 98.87 51.25 100.59 51.66C102.31 52.09 104.24 52.3 106.38 52.3C108.52 52.3 110.47 52.09 112.21 51.66C113.95 51.25 115.48 50.66 116.81 49.88C118.16 49.08 119.29 48.12 120.21 47C121.15 45.86 121.9 44.57 122.45 43.14C122.9 42 123.22 40.73 123.4 39.34C123.6 37.95 123.71 36.4 123.71 34.68V10.52H123.68ZM149.44 9.75C147.25 9.75 145.28 10.02 143.52 10.55C141.78 11.06 140.26 11.85 138.95 12.91C137.66 13.95 136.64 15.28 135.88 16.9C135.12 18.49 134.75 20.37 134.75 22.54C134.75 24.5 135.08 26.14 135.73 27.45C136.38 28.76 137.26 29.84 138.37 30.7C139.47 31.54 140.75 32.2 142.2 32.69C143.65 33.16 145.17 33.57 146.77 33.92C147.98 34.17 149.12 34.42 150.2 34.69C151.3 34.93 152.3 35.26 153.17 35.67C154.05 36.08 154.74 36.61 155.26 37.26C155.77 37.89 156.03 38.73 156.03 39.77C156.03 40.96 155.75 41.96 155.2 42.78C154.65 43.58 153.91 44.21 152.99 44.68C152.09 45.15 151.07 45.49 149.92 45.69C148.78 45.87 147.61 45.97 146.43 45.97C144.39 45.97 142.4 45.78 140.48 45.39C138.56 44.98 136.59 44.34 134.56 43.46V49.81C135.99 50.61 137.78 51.22 139.93 51.65C142.1 52.1 144.29 52.33 146.52 52.33C149.08 52.33 151.42 52.07 153.57 51.56C155.72 51.05 157.53 50.27 159.03 49.23C160.54 48.17 161.71 46.83 162.53 45.21C163.35 43.6 163.76 41.69 163.76 39.48C163.76 37.27 163.4 35.58 162.69 34.21C161.97 32.82 161 31.69 159.78 30.84C158.55 29.98 157.14 29.32 155.55 28.85C153.98 28.36 152.32 27.93 150.58 27.56C149.48 27.34 148.43 27.09 147.45 26.82C146.47 26.55 145.6 26.21 144.84 25.78C144.08 25.33 143.48 24.77 143.03 24.09C142.6 23.42 142.39 22.56 142.39 21.51C142.39 19.71 143.05 18.36 144.38 17.46C145.73 16.56 147.64 16.11 150.11 16.11C151.83 16.11 153.66 16.3 155.6 16.69C157.56 17.06 159.61 17.66 161.73 18.5V12.06C160.14 11.39 158.24 10.83 156.03 10.4C153.82 9.97 151.63 9.76 149.44 9.76M201.2 10.53H174.62V51.55H202.31V45.26H182.13V33.7H198.5V27.41H182.13V16.8H201.2V10.51V10.53ZM222.55 9.6C221.85 9.6 221.13 9.68 220.38 9.84C219.64 9.99 218.92 10.24 218.21 10.59C217.52 10.93 216.87 11.37 216.25 11.91C215.64 12.45 215.11 13.11 214.65 13.87C214.19 14.64 213.83 15.53 213.56 16.54C213.3 17.55 213.18 18.69 213.18 19.96C213.18 21.66 213.43 23.13 213.93 24.37C214.43 25.61 215.11 26.64 215.98 27.45C216.84 28.26 217.85 28.86 219 29.25C220.16 29.64 221.39 29.84 222.68 29.84C223.18 29.84 223.68 29.81 224.18 29.74C224.68 29.69 225.15 29.6 225.6 29.5C226.04 29.41 226.45 29.29 226.81 29.16C227.19 29.02 227.49 28.89 227.72 28.75V26.14C226.96 26.45 226.19 26.69 225.39 26.87C224.59 27.03 223.8 27.11 223.02 27.11C221.94 27.11 220.99 26.93 220.16 26.58C219.34 26.22 218.65 25.72 218.09 25.08C217.55 24.43 217.14 23.67 216.85 22.79C216.58 21.91 216.45 20.95 216.45 19.91C216.45 18.48 216.63 17.28 217 16.33C217.38 15.36 217.87 14.58 218.48 14C219.09 13.41 219.78 12.98 220.55 12.72C221.32 12.46 222.1 12.34 222.88 12.34C223.66 12.34 224.35 12.42 225.07 12.58C225.79 12.74 226.57 12.99 227.42 13.31V10.7C226.81 10.35 226.08 10.08 225.23 9.89C224.38 9.69 223.49 9.59 222.56 9.59M238.32 0.0100002H235.18V29.33H238.32V15.66C239.05 14.61 239.91 13.78 240.91 13.19C241.91 12.58 242.96 12.28 244.07 12.28C245.41 12.28 246.37 12.67 246.95 13.45C247.54 14.23 247.84 15.4 247.84 16.95V29.32H250.98V16.44C250.98 15.04 250.78 13.89 250.39 13C250 12.11 249.49 11.41 248.87 10.91C248.25 10.41 247.57 10.07 246.84 9.88C246.11 9.68 245.38 9.58 244.65 9.58C243.92 9.58 243.29 9.66 242.69 9.82C242.08 9.98 241.52 10.2 240.99 10.49C240.46 10.76 239.98 11.09 239.55 11.48C239.12 11.86 238.73 12.27 238.38 12.72H238.32V0V0.0100002Z" fill="#00465B"/>
</svg>
