<?xml version="1.0" encoding="UTF-8"?><svg id="a" xmlns="http://www.w3.org/2000/svg" viewBox="0 0 150 150"><defs><style>.b{fill:#236bf5;}.c{fill:none;}</style></defs><path class="c" d="M0,0H150V150H0V0Z"/><path class="b" d="M148.71,75.05c2.38,14.68-10.35,22.93-23.27,23.89-8.22,16.9-37.2,28.3-62.26,16.01-10.67,1.62-16.63-1.07-21.17-6.19,9.14-11.81,36.95-33.07,70.91-22.08,18.15,5.85,22.86-7.92,18.29-13.08-17.11-19.43-55.75-1.94-57.12-.48,15.17-23.23,69.45-29.74,74.63,1.92Z"/><path class="b" d="M96.69,48.37c.09,0-12.35-4.43-29.71,3.08-.71-.25-1.39-.55-2.06-.89,16.72-11.1,31.36-15.81,43.9-13.98-7.6-8.72-44.05-15.14-64.93,5.8C18.08,37.29,.01,59.17,1.04,79.14c1.03,19.98,22.84,32.45,35.26,29.05,.3-.04,.59-.04,.89,0,2.78-13.2,13.98-43.92,59.5-59.81v-.02Z"/></svg>
