<?xml version="1.0" encoding="UTF-8" standalone="no"?>
<!DOCTYPE svg PUBLIC "-//W3C//DTD SVG 1.1//EN" "http://www.w3.org/Graphics/SVG/1.1/DTD/svg11.dtd">
<svg xmlns:dc="http://purl.org/dc/elements/1.1/" xmlns:xl="http://www.w3.org/1999/xlink" xmlns="http://www.w3.org/2000/svg" version="1.1" viewBox="-.72523055 -.98464 51.58214 15.00233" width="51.58214" height="15.00233">
  <defs/>
  <g id="Canvas_1" stroke-dasharray="none" fill-opacity="1" stroke-opacity="1" stroke="none" fill="none">
    <title>Canvas 1</title>
    <g id="Canvas_1_Layer_1">
      <title>Layer 1</title>
      <g id="Group_2">
        <title>layer1</title>
        <g id="Graphic_12">
          <title>rect5110-1-7-8-9</title>
          <rect x="40.17472" y="-.98464" width=".630091" height="15.00233" fill="#00465b"/>
        </g>
        <g id="Group_6">
          <title>text3709-4-1-3-8-4-0-0-5</title>
          <g id="Graphic_11">
            <title>path5322</title>
            <path d="M 3.9866737 7.1821505 L 1.9911842 7.1821505 L .7800413 10.331108 L -.72523055 10.331108 L 2.3372238 2.614433 L 3.6290974 2.614433 L 6.691552 10.331108 L 5.197817 10.331108 Z M 2.9773923 4.4715085 C 2.7082523 5.278937 2.467941 5.9537156 2.2564757 6.495844 L 1.9911842 7.1821505 L 3.9866737 7.1821505 L 3.7213822 6.495844 C 3.509917 5.949867 3.2696056 5.2750886 3.0004657 4.4715085 Z" fill="#00465b"/>
          </g>
          <g id="Graphic_10">
            <title>path5324</title>
            <path d="M 13.85025 4.667597 C 13.85025 5.002106 13.775274 5.309699 13.625324 5.5903754 C 13.475373 5.8672035 13.227379 6.0978966 12.881342 6.2824546 L 12.881342 6.305519 C 13.073586 6.370885 13.248528 6.455473 13.40617 6.559283 C 13.567655 6.65925 13.704148 6.780363 13.815649 6.922623 C 13.930992 7.06104 14.019423 7.218679 14.08094 7.39554 C 14.146306 7.572407 14.178989 7.77042 14.178989 7.989579 C 14.178989 8.17798 14.14823 8.379835 14.086713 8.595146 C 14.029038 8.810463 13.925225 9.02001 13.775274 9.223787 C 13.625324 9.423721 13.42539 9.608276 13.175471 9.777452 C 12.925553 9.946622 12.610272 10.08119 12.229629 10.181157 C 12.13351 10.204231 12.027776 10.22538 11.912426 10.244605 C 11.800925 10.26383 11.675966 10.28113 11.53755 10.296507 C 11.399138 10.308041 11.245345 10.317653 11.076169 10.325344 C 10.906993 10.329193 10.716671 10.331117 10.505203 10.331117 L 8.261714 10.331117 L 8.261714 2.6144418 L 10.943519 2.6144418 C 11.516406 2.6144418 11.977792 2.6721136 12.327677 2.7874572 C 12.589129 2.872048 12.815977 2.983552 13.00822 3.121969 C 13.200463 3.2565374 13.358105 3.4084095 13.481146 3.577585 C 13.608023 3.7429124 13.700299 3.9197763 13.757974 4.108177 C 13.819491 4.292735 13.85025 4.479211 13.85025 4.667606 Z M 9.67471 6.974525 L 9.67471 9.148811 L 10.59748 9.148811 C 10.843555 9.148811 11.055023 9.143045 11.231884 9.131511 C 11.40875 9.116128 11.560623 9.093058 11.6875 9.062299 C 11.883592 9.020007 12.047 8.964256 12.177727 8.895048 C 12.308452 8.821997 12.414187 8.741254 12.494929 8.652821 C 12.575671 8.560545 12.633346 8.460578 12.667953 8.352919 C 12.702554 8.241418 12.719855 8.124151 12.719855 8.001116 C 12.719855 7.785799 12.660259 7.597399 12.541067 7.435914 C 12.421875 7.2744295 12.235398 7.153316 11.981638 7.072574 C 11.870137 7.0379725 11.739411 7.012981 11.58946 6.997598 C 11.43951 6.982216 11.247266 6.974525 11.01273 6.974525 Z M 10.949283 5.792228 C 11.333775 5.792228 11.620219 5.753778 11.808614 5.676879 C 12.020088 5.588451 12.170038 5.467338 12.258466 5.3135384 C 12.350748 5.1558965 12.396889 4.9790326 12.396889 4.7829467 C 12.396889 4.5791697 12.344981 4.39846 12.241165 4.2408183 C 12.137355 4.0793337 11.960492 3.9601416 11.710574 3.883242 C 11.606764 3.8524833 11.48565 3.831337 11.347233 3.8198033 C 11.208816 3.804421 11.037719 3.79673 10.833942 3.79673 L 9.67471 3.79673 L 9.67471 5.792228 Z" fill="#00465b"/>
          </g>
          <g id="Graphic_9">
            <title>path5326</title>
            <path d="M 19.27875 10.475295 C 18.875038 10.475295 18.511698 10.434924 18.18873 10.354182 C 17.86576 10.277282 17.581238 10.165781 17.335162 10.019679 C 17.089093 9.869728 16.87955 9.689018 16.70653 9.47755 C 16.533506 9.262234 16.39509 9.020004 16.29128 8.750861 C 16.206695 8.53555 16.145177 8.297169 16.106728 8.035717 C 16.07212 7.774265 16.054817 7.482055 16.054817 7.159086 L 16.054817 2.614433 L 17.467813 2.614433 L 17.467813 7.0322 C 17.467813 7.578177 17.533175 8.0049585 17.663901 8.312545 C 17.81001 8.654739 18.023402 8.902736 18.304079 9.056535 C 18.584755 9.206486 18.915415 9.281462 19.29606 9.281462 C 19.676697 9.281462 20.007355 9.206486 20.288031 9.056535 C 20.568708 8.902736 20.7821 8.654739 20.928209 8.312545 C 21.058934 8.0049585 21.124297 7.578177 21.124297 7.0322 L 21.124297 2.614433 L 22.537293 2.614433 L 22.537293 7.159086 C 22.537293 7.482055 22.518068 7.774265 22.479618 8.035717 C 22.44501 8.297169 22.385415 8.53555 22.30083 8.750861 C 22.19702 9.020004 22.056682 9.262234 21.879815 9.47755 C 21.706797 9.689018 21.493407 9.869728 21.239647 10.019679 C 20.98973 10.165781 20.70136 10.277282 20.374543 10.354182 C 20.047732 10.434924 19.682467 10.475295 19.27875 10.475295 Z" fill="#00465b"/>
          </g>
          <g id="Graphic_8">
            <title>path5328</title>
            <path d="M 28.62327 8.116457 C 28.62327 7.920371 28.57521 7.762732 28.479084 7.64354 C 28.382965 7.520505 28.25224 7.420538 28.086907 7.343638 C 27.92158 7.266738 27.735103 7.205221 27.527477 7.159086 C 27.3237 7.109102 27.108387 7.06104 26.881536 7.014899 C 26.581635 6.949539 26.29519 6.872642 26.022206 6.784209 C 25.74922 6.691933 25.508915 6.566974 25.30129 6.409332 C 25.09367 6.2478474 24.92834 6.0440674 24.8053 5.797992 C 24.682264 5.5519226 24.620747 5.244333 24.620747 4.875223 C 24.620747 4.4676687 24.691876 4.113941 24.834136 3.8140393 C 24.976396 3.5102893 25.168642 3.2603713 25.410875 3.0642854 C 25.656944 2.864351 25.943388 2.7163216 26.270205 2.620197 C 26.600865 2.5202298 26.971897 2.4702462 27.3833 2.4702462 C 27.794696 2.4702462 28.20802 2.5106174 28.62327 2.5913597 C 29.038516 2.672102 29.39609 2.7759147 29.69599 2.902798 L 29.69599 4.113941 C 29.296122 3.956299 28.911633 3.842874 28.542523 3.7736653 C 28.17726 3.700614 27.833146 3.6640886 27.510177 3.6640886 C 27.044948 3.6640886 26.68545 3.7486764 26.431684 3.917852 C 26.181766 4.087022 26.056807 4.3407826 26.056807 4.679134 C 26.056807 4.8752257 26.097178 5.03671 26.17792 5.1635877 C 26.26251 5.290471 26.375936 5.396205 26.518196 5.48079 C 26.660456 5.561532 26.823865 5.626895 27.008422 5.676879 C 27.192975 5.726862 27.389063 5.773003 27.59669 5.8153015 C 27.9235 5.884504 28.234936 5.9652465 28.530995 6.0575284 C 28.830897 6.145956 29.096194 6.270912 29.326887 6.4323966 C 29.55758 6.593887 29.74021 6.805358 29.87478 7.06681 C 30.009348 7.324413 30.076632 7.65507 30.076632 8.058782 C 30.076632 8.474033 29.999735 8.83353 29.845942 9.137275 C 29.69215 9.441019 29.47299 9.692858 29.188464 9.892793 C 28.907787 10.088884 28.565593 10.23499 28.161882 10.331108 C 27.75817 10.427233 27.31601 10.475295 26.835398 10.475295 C 26.416305 10.475295 26.00298 10.433003 25.595427 10.348418 C 25.191715 10.26767 24.855288 10.152323 24.586145 10.002378 L 24.586145 8.808536 C 24.96679 8.973869 25.33782 9.094982 25.69924 9.171876 C 26.060658 9.244933 26.43361 9.281462 26.818098 9.281462 C 27.0411 9.281462 27.26026 9.264158 27.475575 9.229551 C 27.690886 9.191101 27.88313 9.127662 28.052305 9.039235 C 28.225324 8.950801 28.363738 8.831609 28.467548 8.681658 C 28.571363 8.527865 28.62327 8.339464 28.62327 8.116457 Z" fill="#00465b"/>
          </g>
          <g id="Graphic_7">
            <title>path5330</title>
            <path d="M 33.532716 9.148811 L 37.327615 9.148811 L 37.327615 10.331108 L 32.11972 10.331108 L 32.11972 2.614433 L 37.11999 2.614433 L 37.11999 3.79673 L 33.532716 3.79673 L 33.532716 5.792228 L 36.612462 5.792228 L 36.612462 6.974525 L 33.532716 6.974525 Z" fill="#00465b"/>
          </g>
        </g>
        <g id="Group_3">
          <title>text3709-4-1-3-4-0-5-8-7-6-3</title>
          <g id="Graphic_5">
            <title>path842</title>
            <path d="M 45.51132 2.4390673 C 45.68652 2.4390673 45.8541 2.4581108 46.014067 2.4961978 C 46.174033 2.5317456 46.311146 2.5825283 46.425407 2.6485457 L 46.425407 3.1398678 C 46.26544 3.0789286 46.11817 3.0332242 45.9836 3.0027547 C 45.849024 2.972285 45.71191 2.9570503 45.57226 2.9570503 C 45.42499 2.9570503 45.27899 2.981172 45.13426 3.0294155 C 44.98953 3.077659 44.86003 3.1576418 44.74577 3.2693636 C 44.63151 3.3785462 44.53883 3.5245463 44.467736 3.707364 C 44.39918 3.8876423 44.3649 4.1123555 44.3649 4.3815035 C 44.3649 4.5770167 44.39029 4.757295 44.441075 4.922339 C 44.494397 5.0873823 44.57184 5.230843 44.673405 5.3527216 C 44.77751 5.472061 44.907005 5.566009 45.061893 5.6345653 C 45.21678 5.700583 45.39579 5.7335915 45.59892 5.7335915 C 45.74619 5.7335915 45.89473 5.718357 46.044537 5.687887 C 46.194346 5.6548784 46.340346 5.609174 46.48254 5.550774 L 46.48254 6.042096 C 46.43937 6.0674874 46.38224 6.092879 46.311146 6.11827 C 46.24259 6.143661 46.166415 6.165244 46.082623 6.183018 C 45.99883 6.203331 45.90996 6.218566 45.816015 6.228722 C 45.722067 6.241418 45.62812 6.247766 45.53417 6.247766 C 45.290414 6.247766 45.059353 6.210948 44.84099 6.1373135 C 44.62516 6.063679 44.435997 5.950687 44.27349 5.798339 C 44.11099 5.6459914 43.98276 5.4530174 43.888814 5.219417 C 43.794866 4.985817 43.74789 4.7090516 43.74789 4.389121 C 43.74789 4.1504425 43.772013 3.935886 43.820257 3.745451 C 43.87104 3.555016 43.939596 3.3874332 44.025927 3.2427027 C 44.112257 3.097972 44.212553 2.9748242 44.326814 2.873259 C 44.443614 2.7716936 44.56676 2.6891718 44.69626 2.6256935 C 44.82829 2.559676 44.964136 2.5127022 45.10379 2.4847717 C 45.24344 2.454302 45.379284 2.4390673 45.51132 2.4390673 Z" fill="#00465b"/>
          </g>
          <g id="Graphic_4">
            <title>path844</title>
            <path d="M 48.47647 3.0294155 L 48.4879 3.0294155 C 48.553916 2.9456242 48.62755 2.8681807 48.7088 2.797085 C 48.790055 2.72345 48.880195 2.6612414 48.97922 2.6104587 C 49.078247 2.557137 49.18489 2.5152413 49.29915 2.4847717 C 49.41341 2.454302 49.53656 2.4390673 49.668595 2.4390673 C 49.80571 2.4390673 49.94282 2.4581108 50.079934 2.4961978 C 50.21705 2.5317456 50.344004 2.5964935 50.460804 2.6904414 C 50.577604 2.7843893 50.67282 2.9151546 50.746457 3.0827374 C 50.82009 3.25032 50.85691 3.4661463 50.85691 3.730216 L 50.85691 6.152548 L 50.26656 6.152548 L 50.26656 3.8254335 C 50.26656 3.5334333 50.2107 3.3137983 50.09898 3.1665287 C 49.989795 3.019259 49.809517 2.945624 49.55814 2.945624 C 49.349934 2.945624 49.15188 3.0027546 48.963986 3.1170156 C 48.77609 3.2287375 48.613585 3.3836245 48.47647 3.581677 L 48.47647 6.152548 L 47.886124 6.152548 L 47.886124 .6375529 L 48.47647 .6375529 Z" fill="#00465b"/>
          </g>
        </g>
      </g>
    </g>
  </g>
</svg>
