<?xml version="1.0" encoding="UTF-8" standalone="no"?>
<!-- Created with Inkscape (http://www.inkscape.org/) -->

<svg
   xmlns:dc="http://purl.org/dc/elements/1.1/"
   xmlns:cc="http://creativecommons.org/ns#"
   xmlns:rdf="http://www.w3.org/1999/02/22-rdf-syntax-ns#"
   xmlns:svg="http://www.w3.org/2000/svg"
   xmlns="http://www.w3.org/2000/svg"
   xmlns:sodipodi="http://sodipodi.sourceforge.net/DTD/sodipodi-0.dtd"
   xmlns:inkscape="http://www.inkscape.org/namespaces/inkscape"
   id="svg2"
   version="1.1"
   inkscape:version="0.91 r13725"
   xml:space="preserve"
   width="113.7"
   height="112.39987"
   viewBox="0 0 113.7 112.39987"
   sodipodi:docname="logo-circl.svg"
   inkscape:export-filename="/home/raphael/gits/hacklu/logos/circl.png"
   inkscape:export-xdpi="316.62"
   inkscape:export-ydpi="316.62"><metadata
     id="metadata8"><rdf:RDF><cc:Work
         rdf:about=""><dc:format>image/svg+xml</dc:format><dc:type
           rdf:resource="http://purl.org/dc/dcmitype/StillImage" /><dc:title></dc:title></cc:Work></rdf:RDF></metadata><defs
     id="defs6"><clipPath
       clipPathUnits="userSpaceOnUse"
       id="clipPath22"><path
         d="M 0,0 244,0 244,90 0,90 0,0 Z"
         id="path24"
         inkscape:connector-curvature="0" /></clipPath><clipPath
       clipPathUnits="userSpaceOnUse"
       id="clipPath44"><path
         d="M 0,0 244,0 244,90 0,90 0,0 Z"
         id="path46"
         inkscape:connector-curvature="0" /></clipPath></defs><sodipodi:namedview
     pagecolor="#ffffff"
     bordercolor="#666666"
     borderopacity="1"
     objecttolerance="10"
     gridtolerance="10"
     guidetolerance="10"
     inkscape:pageopacity="0"
     inkscape:pageshadow="2"
     inkscape:window-width="2560"
     inkscape:window-height="1411"
     id="namedview4"
     showgrid="false"
     showguides="true"
     inkscape:guide-bbox="true"
     inkscape:zoom="5.6568543"
     inkscape:cx="139.34245"
     inkscape:cy="34.748207"
     inkscape:window-x="1362"
     inkscape:window-y="0"
     inkscape:window-maximized="1"
     inkscape:current-layer="g10"><sodipodi:guide
       position="-53.5918,135.3839"
       orientation="-0.70710678,0.70710678"
       id="guide3474" /><sodipodi:guide
       position="113.68359,56.058593"
       orientation="1,0"
       id="guide3476" /></sodipodi:namedview><g
     id="g10"
     inkscape:groupmode="layer"
     inkscape:label="logo-circl"
     transform="matrix(1.25,0,0,-1.25,0,112.39987)"><g
       id="g12"><path
         d="m 12.926,60.08 c 1.586,3.352 3.699,6.473 6.304,9.231 l 15.985,-9.231 -22.289,0 z m 62.215,4.418 c 0.402,-0.605 0.789,-1.23 1.156,-1.867 1.5,-2.602 2.637,-5.309 3.43,-8.067 L 64.246,45.627 75.141,64.498 Z M 48.023,9.01 C 44.371,8.732 40.715,9.025 37.188,9.842 l 0,17.941 L 48.023,9.01 Z M 37.188,58.943 62.246,44.475 37.188,30.006 l 0,28.937"
         style="fill:#456f84;fill-opacity:1;fill-rule:nonzero;stroke:none"
         id="path14"
         inkscape:connector-curvature="0" /></g><g
       id="g16"><g
         id="g18"
         transform="translate(0,-0.080101)"><g
           id="g20" /><g
           id="g26"><g
             clip-path="url(#clipPath22)"
             id="g28"><g
               id="g30"><path
                 d="M 54.938,0.066 C 81.172,5.66 96.887,32.625 88.828,58.199 L 38.238,28.988 54.938,0.066"
                 style="fill:#ee2338;fill-opacity:1;fill-rule:nonzero;stroke:none"
                 id="path32"
                 inkscape:connector-curvature="0" /></g></g></g></g></g><g
       id="g34"><path
         d="m 68.203,83.818 c -18.808,10.86 -42.141,6.758 -56.23,-8.617 l 50.734,-29.289 16.66,28.852 c -3.137,3.504 -6.871,6.578 -11.164,9.054"
         style="fill:#ee2338;fill-opacity:1;fill-rule:nonzero;stroke:none"
         id="path36"
         inkscape:connector-curvature="0" /></g><g
       id="g38"><g
         id="g40"
         transform="translate(0,-0.080101)"><g
           id="g42" /><g
           id="g48"><g
             clip-path="url(#clipPath44)"
             id="g50"><g
               id="g52"><path
                 d="M 22.742,5.16 C 26.891,2.758 31.266,1.094 35.715,0.113 l 0,58.575 -33.457,0 C -4.324,38.672 3.77,16.109 22.742,5.16"
                 style="fill:#ee2338;fill-opacity:1;fill-rule:nonzero;stroke:none"
                 id="path54"
                 inkscape:connector-curvature="0" /></g></g></g></g></g></g></svg>