<svg xmlns="http://www.w3.org/2000/svg" viewBox="0 0 96 96" role="img" aria-label="Google package">
  <rect width="96" height="96" rx="18" fill="#fff"/>
  <path fill="#4285f4" d="M82.6 49c0-2.5-.2-4.9-.7-7.2H49v13.6h18.8c-.8 4.4-3.3 8.1-7 10.6v8.8h11.3c6.6-6.1 10.5-15 10.5-25.8z"/>
  <path fill="#34a853" d="M49 83c9.5 0 17.4-3.1 23.2-8.5L60.9 65.7c-3.1 2.1-7.1 3.3-11.9 3.3-9.2 0-17-6.2-19.8-14.5H17.5v9.1C23.3 75.1 35.2 83 49 83z"/>
  <path fill="#fbbc05" d="M29.2 54.5c-.7-2.1-1.1-4.3-1.1-6.5s.4-4.4 1.1-6.5v-9.1H17.5A34.1 34.1 0 0 0 14 48c0 5.6 1.3 10.9 3.5 15.6l11.7-9.1z"/>
  <path fill="#ea4335" d="M49 27c5.2 0 9.8 1.8 13.4 5.2l10-10C66.4 16.6 58.5 13 49 13c-13.8 0-25.7 7.9-31.5 19.4l11.7 9.1C32 33.2 39.8 27 49 27z"/>
</svg>
