<svg width="40" height="40" viewBox="0 0 40 40" fill="none" xmlns="http://www.w3.org/2000/svg">
<rect width="40" height="40" fill="#0E1017"/>
<path d="M15.6299 22.7449L19.9749 12.4681C19.9935 12.4275 20.0036 12.3836 20.0045 12.3389C20.0055 12.2943 19.9973 12.25 19.9805 12.2086C19.9636 12.1673 19.9385 12.1299 19.9067 12.0986C19.8749 12.0674 19.837 12.043 19.7954 12.0269C19.7538 12.0102 19.7096 12.0013 19.6648 12.0008H9.04214C8.97294 11.9959 8.90398 12.0133 8.84528 12.0503C8.78659 12.0873 8.74119 12.1421 8.71569 12.2067L7.02796 16.2782C7.00999 16.3188 7.00048 16.3626 7.00002 16.407C6.99955 16.4515 7.00814 16.4955 7.02524 16.5365C7.04235 16.5775 7.06763 16.6145 7.09953 16.6454C7.13142 16.6763 7.16928 16.7003 7.21077 16.716C7.25103 16.7332 7.29432 16.7421 7.33808 16.7422H12.4829C12.5695 16.7422 12.6525 16.7766 12.7137 16.8379C12.775 16.8992 12.8094 16.9823 12.8094 17.0689C12.8089 17.1138 12.8 17.1581 12.7832 17.1997L8.49371 27.532C8.47521 27.5728 8.46528 27.6169 8.46455 27.6617C8.46381 27.7065 8.47227 27.7509 8.48942 27.7923C8.50656 27.8337 8.53201 27.8711 8.5642 27.9022C8.59639 27.9333 8.63462 27.9574 8.67652 27.9731C8.71678 27.9903 8.76008 27.9992 8.80384 27.9993H20.063C20.1326 28.0039 20.2019 27.9861 20.2606 27.9485C20.3194 27.9108 20.3645 27.8553 20.3895 27.7902L22.0936 23.6794C22.1096 23.6383 22.1171 23.5944 22.1157 23.5503C22.1143 23.5062 22.1039 23.4628 22.0853 23.4228C22.0667 23.3828 22.0402 23.347 22.0074 23.3175C21.9746 23.2881 21.9362 23.2656 21.8944 23.2514C21.8542 23.2342 21.8109 23.2253 21.7671 23.2252H15.9367C15.8502 23.2252 15.7671 23.1908 15.7059 23.1295C15.6447 23.0682 15.6103 22.9851 15.6103 22.8985C15.6056 22.8464 15.6123 22.794 15.6299 22.7449Z" fill="#FDFDFE"/>
<path d="M18.1467 21.8169H22.6223C22.6888 21.8183 22.7541 21.7993 22.8095 21.7625C22.8649 21.7257 22.9078 21.6728 22.9324 21.611L24.8911 16.9513C24.9157 16.8895 24.9586 16.8366 25.014 16.7998C25.0694 16.763 25.1347 16.7441 25.2012 16.7454H30.9728C31.042 16.7503 31.111 16.733 31.1697 16.696C31.2284 16.6589 31.2738 16.6042 31.2993 16.5396L32.9707 12.4681C32.9892 12.4273 32.9991 12.3832 32.9998 12.3384C33.0006 12.2936 32.9921 12.2491 32.975 12.2078C32.9578 12.1664 32.9324 12.129 32.9002 12.0979C32.868 12.0668 32.8298 12.0426 32.7879 12.0269C32.7476 12.0098 32.7043 12.0009 32.6606 12.0008H21.9498C21.8806 11.9959 21.8116 12.0133 21.7529 12.0503C21.6942 12.0873 21.6488 12.1421 21.6233 12.2067L17.8202 21.3561C17.8016 21.3967 17.7916 21.4406 17.7906 21.4853C17.7896 21.5299 17.7978 21.5742 17.8146 21.6156C17.8315 21.6569 17.8566 21.6943 17.8884 21.7256C17.9202 21.7568 17.9581 21.7812 17.9998 21.7973C18.0468 21.8139 18.0969 21.8206 18.1467 21.8169Z" fill="#FDFDFE"/>
</svg>
