<svg width="650" height="80" viewBox="0 0 650 80" fill="none" xmlns="http://www.w3.org/2000/svg">
<path d="M23.15 24.52H16.28L0 65.55H8L14.44 48.81L15.85 45.16C16.97 42.28 18.25 38.69 19.68 34.4H19.8C21.23 38.67 22.51 42.26 23.63 45.16L25.04 48.81L31.48 65.55H39.42L23.15 24.52ZM62.04 24.52C65.09 24.52 67.54 24.83 69.4 25.44C70.79 25.89 72 26.48 73.02 27.22C74.04 27.94 74.88 28.74 75.53 29.64C76.21 30.52 76.7 31.46 77 32.46C77.33 33.44 77.49 34.43 77.49 35.43C77.49 37.21 77.09 38.84 76.29 40.34C75.49 41.81 74.17 43.04 72.34 44.02V44.14C73.36 44.49 74.29 44.94 75.13 45.49C75.99 46.02 76.71 46.67 77.31 47.42C77.92 48.16 78.39 48.99 78.72 49.93C79.07 50.87 79.24 51.92 79.24 53.09C79.24 54.09 79.08 55.17 78.75 56.31C78.44 57.46 77.89 58.57 77.09 59.65C76.29 60.71 75.23 61.69 73.9 62.59C72.57 63.49 70.89 64.21 68.87 64.74C68.36 64.86 67.8 64.97 67.18 65.08C66.59 65.18 65.92 65.27 65.19 65.36C64.45 65.42 63.64 65.47 62.74 65.51C61.84 65.53 60.83 65.54 59.7 65.54H47.77V24.52H62.03M62.06 41.41C64.1 41.41 65.63 41.21 66.63 40.8C67.75 40.33 68.55 39.69 69.02 38.87C69.51 38.03 69.76 37.09 69.76 36.05C69.76 34.97 69.48 34.01 68.93 33.17C68.38 32.31 67.44 31.68 66.11 31.27C65.56 31.11 64.91 30.99 64.18 30.93C63.44 30.85 62.53 30.81 61.45 30.81H55.29V41.42H62.07M60.2 59.26C61.51 59.26 62.63 59.23 63.57 59.17C64.51 59.09 65.32 58.96 65.99 58.8C67.03 58.58 67.9 58.28 68.6 57.91C69.29 57.52 69.86 57.09 70.29 56.62C70.72 56.13 71.03 55.6 71.21 55.03C71.39 54.44 71.49 53.81 71.49 53.16C71.49 52.02 71.17 51.01 70.54 50.15C69.91 49.29 68.91 48.65 67.57 48.22C66.98 48.04 66.28 47.9 65.48 47.82C64.68 47.74 63.66 47.7 62.41 47.7H55.3V59.26H60.21H60.2ZM123.68 24.52H116.17V48.01C116.17 50.91 115.82 53.18 115.13 54.82C114.35 56.64 113.22 57.96 111.73 58.77C110.24 59.57 108.48 59.97 106.46 59.97C104.44 59.97 102.68 59.57 101.19 58.77C99.7 57.95 98.56 56.63 97.79 54.82C97.1 53.18 96.75 50.92 96.75 48.01V24.52H89.24V48.68C89.24 50.4 89.33 51.95 89.52 53.34C89.72 54.73 90.05 56 90.5 57.14C91.05 58.57 91.79 59.86 92.71 61C93.63 62.12 94.74 63.09 96.05 63.88C97.36 64.66 98.87 65.25 100.59 65.66C102.31 66.09 104.24 66.3 106.38 66.3C108.52 66.3 110.47 66.09 112.21 65.66C113.95 65.25 115.48 64.66 116.81 63.88C118.16 63.08 119.29 62.12 120.21 61C121.15 59.86 121.9 58.57 122.45 57.14C122.9 56 123.22 54.73 123.4 53.34C123.6 51.95 123.71 50.4 123.71 48.68V24.52H123.68ZM149.44 23.75C147.25 23.75 145.28 24.02 143.52 24.55C141.78 25.06 140.26 25.85 138.95 26.91C137.66 27.95 136.64 29.28 135.88 30.9C135.12 32.49 134.75 34.37 134.75 36.54C134.75 38.5 135.08 40.14 135.73 41.45C136.38 42.76 137.26 43.84 138.37 44.7C139.47 45.54 140.75 46.2 142.2 46.69C143.65 47.16 145.17 47.57 146.77 47.92C147.98 48.17 149.12 48.42 150.2 48.69C151.3 48.93 152.3 49.26 153.17 49.67C154.05 50.08 154.74 50.61 155.26 51.26C155.77 51.89 156.03 52.73 156.03 53.77C156.03 54.96 155.75 55.96 155.2 56.78C154.65 57.58 153.91 58.21 152.99 58.68C152.09 59.15 151.07 59.49 149.92 59.69C148.78 59.87 147.61 59.97 146.43 59.97C144.39 59.97 142.4 59.78 140.48 59.39C138.56 58.98 136.59 58.34 134.56 57.46V63.81C135.99 64.61 137.78 65.22 139.93 65.65C142.1 66.1 144.29 66.33 146.52 66.33C149.08 66.33 151.42 66.07 153.57 65.56C155.72 65.05 157.53 64.27 159.03 63.23C160.54 62.17 161.71 60.83 162.53 59.21C163.35 57.6 163.76 55.69 163.76 53.48C163.76 51.27 163.4 49.58 162.69 48.21C161.97 46.82 161 45.69 159.78 44.84C158.55 43.98 157.14 43.32 155.55 42.85C153.98 42.36 152.32 41.93 150.58 41.56C149.48 41.34 148.43 41.09 147.45 40.82C146.47 40.55 145.6 40.21 144.84 39.78C144.08 39.33 143.48 38.77 143.03 38.09C142.6 37.42 142.39 36.56 142.39 35.51C142.39 33.71 143.05 32.36 144.38 31.46C145.73 30.56 147.64 30.11 150.11 30.11C151.83 30.11 153.66 30.3 155.6 30.69C157.56 31.06 159.61 31.66 161.73 32.5V26.06C160.14 25.39 158.24 24.83 156.03 24.4C153.82 23.97 151.63 23.76 149.44 23.76M201.2 24.53H174.62V65.55H202.31V59.26H182.13V47.7H198.5V41.41H182.13V30.8H201.2V24.51V24.53ZM222.55 23.6C221.85 23.6 221.13 23.68 220.38 23.84C219.64 23.99 218.92 24.24 218.21 24.59C217.52 24.93 216.87 25.37 216.25 25.91C215.64 26.45 215.11 27.11 214.65 27.87C214.19 28.64 213.83 29.53 213.56 30.54C213.3 31.55 213.18 32.69 213.18 33.96C213.18 35.66 213.43 37.13 213.93 38.37C214.43 39.61 215.11 40.64 215.98 41.45C216.84 42.26 217.85 42.86 219 43.25C220.16 43.64 221.39 43.84 222.68 43.84C223.18 43.84 223.68 43.81 224.18 43.74C224.68 43.69 225.15 43.6 225.6 43.5C226.04 43.41 226.45 43.29 226.81 43.16C227.19 43.02 227.49 42.89 227.72 42.75V40.14C226.96 40.45 226.19 40.69 225.39 40.87C224.59 41.03 223.8 41.11 223.02 41.11C221.94 41.11 220.99 40.93 220.16 40.58C219.34 40.22 218.65 39.72 218.09 39.08C217.55 38.43 217.14 37.67 216.85 36.79C216.58 35.91 216.45 34.95 216.45 33.91C216.45 32.48 216.63 31.28 217 30.33C217.38 29.36 217.87 28.58 218.48 28C219.09 27.41 219.78 26.98 220.55 26.72C221.32 26.46 222.1 26.34 222.88 26.34C223.66 26.34 224.35 26.42 225.07 26.58C225.79 26.74 226.57 26.99 227.42 27.31V24.7C226.81 24.35 226.08 24.08 225.23 23.89C224.38 23.69 223.49 23.59 222.56 23.59M238.32 14.01H235.18V43.33H238.32V29.66C239.05 28.61 239.91 27.78 240.91 27.19C241.91 26.58 242.96 26.28 244.07 26.28C245.41 26.28 246.37 26.67 246.95 27.45C247.54 28.23 247.84 29.4 247.84 30.95V43.32H250.98V30.44C250.98 29.04 250.78 27.89 250.39 27C250 26.11 249.49 25.41 248.87 24.91C248.25 24.41 247.57 24.07 246.84 23.88C246.11 23.68 245.38 23.58 244.65 23.58C243.92 23.58 243.29 23.66 242.69 23.82C242.08 23.98 241.52 24.2 240.99 24.49C240.46 24.76 239.98 25.09 239.55 25.48C239.12 25.86 238.73 26.27 238.38 26.72H238.32V14V14.01Z" fill="#00465B"/>
</svg>
