<?xml version="1.0" standalone="no"?>
<!DOCTYPE svg PUBLIC "-//W3C//DTD SVG 20010904//EN"
 "http://www.w3.org/TR/2001/REC-SVG-20010904/DTD/svg10.dtd">
<svg version="1.0" xmlns="http://www.w3.org/2000/svg"
 width="2175.000000pt" height="460.000000pt" viewBox="0 0 2175.000000 460.000000"
 preserveAspectRatio="xMidYMid meet">

<g transform="translate(0.000000,460.000000) scale(0.100000,-0.100000)"
fill="#000000" stroke="none">
<path d="M2050 4274 c-588 -42 -1016 -127 -1534 -302 l-169 -57 7 -165 c37
-969 401 -1887 1038 -2625 118 -136 360 -373 493 -483 111 -91 343 -262 391
-288 l31 -17 79 53 c605 406 1124 1004 1440 1658 266 551 403 1105 430 1737
l7 160 -159 52 c-398 131 -798 215 -1224 258 -147 15 -707 28 -830 19z m440
-793 c129 -67 232 -206 327 -441 10 -23 15 -16 70 95 32 66 81 175 108 243 55
138 55 139 134 86 41 -27 61 -60 61 -101 0 -28 -98 -220 -218 -428 l-75 -130
17 -60 c9 -33 35 -136 57 -230 62 -259 106 -411 140 -482 26 -54 38 -68 72
-84 56 -25 64 -24 185 17 85 30 106 34 113 23 5 -8 9 -19 9 -26 0 -23 -68 -68
-195 -129 -308 -148 -452 -168 -540 -77 -43 45 -52 72 -110 365 -26 128 -48
234 -49 235 -1 1 -40 -43 -86 -98 -45 -55 -138 -153 -206 -218 -278 -269 -523
-371 -799 -332 -294 41 -406 288 -329 728 54 315 253 650 496 836 212 162 425
239 653 234 103 -2 126 -6 165 -26z"/>
<path d="M2077 3343 c-45 -7 -147 -84 -207 -155 -146 -174 -253 -429 -296
-706 -11 -74 -15 -150 -13 -265 4 -149 6 -166 29 -211 34 -67 72 -86 170 -86
146 1 294 77 462 239 105 100 191 199 276 317 l52 71 -35 128 c-55 199 -91
301 -150 420 -94 190 -180 264 -288 248z"/>
<path d="M19509 2992 c-154 -80 -122 -291 51 -332 170 -41 309 107 241 256
-44 98 -182 134 -292 76z"/>
<path d="M6080 2140 l0 -780 165 0 165 0 0 780 0 780 -165 0 -165 0 0 -780z"/>
<path d="M8170 2140 l0 -780 165 0 165 0 0 305 c0 181 4 324 11 355 16 76 64
140 129 173 50 26 63 28 141 25 103 -4 143 -26 186 -103 l28 -50 3 -352 3
-353 165 0 164 0 0 363 c0 392 -6 454 -55 553 -72 147 -226 234 -415 234 -120
0 -242 -38 -321 -101 l-39 -31 0 271 0 271 -165 0 -165 0 0 -780z"/>
<path d="M10960 2100 l0 -740 160 0 160 0 2 430 3 429 211 -347 210 -347 81
-3 81 -3 213 361 214 360 3 -440 2 -440 160 0 160 0 0 740 0 740 -142 0 -143
-1 -266 -450 c-146 -248 -269 -451 -275 -452 -5 0 -130 203 -279 451 l-270
451 -142 1 -143 0 0 -740z"/>
<path d="M17270 2610 l0 -140 -90 0 -90 0 0 -125 0 -125 89 0 89 0 4 -297 c4
-282 5 -301 26 -355 62 -156 219 -238 432 -225 85 5 192 34 217 60 20 19 -63
241 -86 231 -91 -39 -155 -41 -205 -9 -51 34 -56 62 -56 339 l0 256 140 0 140
0 0 125 0 125 -140 0 -140 0 0 140 0 140 -165 0 -165 0 0 -140z"/>
<path d="M5085 2499 c-32 -5 -84 -16 -115 -25 -72 -20 -200 -82 -206 -99 -4
-9 84 -204 101 -223 1 -1 33 13 71 32 39 20 106 42 153 52 186 37 328 -15 361
-134 21 -76 31 -72 -167 -72 -331 -1 -468 -51 -540 -198 -25 -50 -28 -68 -28
-147 1 -78 5 -97 28 -142 37 -71 88 -120 161 -154 185 -87 437 -56 545 66 l31
36 0 -66 0 -65 155 0 155 0 0 363 c0 403 -6 454 -61 557 -60 113 -170 186
-323 215 -84 16 -225 18 -321 4z m375 -722 c0 -84 -37 -145 -108 -181 -164
-83 -353 -1 -318 138 20 79 89 104 289 105 l137 1 0 -63z"/>
<path d="M7240 2492 c-69 -18 -138 -54 -182 -96 l-28 -25 0 59 0 60 -160 0
-160 0 0 -770 0 -770 165 0 165 0 0 260 0 260 48 -36 c83 -65 178 -94 301 -94
82 0 204 30 274 67 78 42 188 155 225 233 90 191 77 454 -32 623 -40 64 -126
143 -193 180 -117 63 -292 83 -423 49z m179 -268 c68 -20 141 -86 172 -157 32
-74 32 -210 0 -284 -97 -220 -407 -231 -519 -19 -25 46 -27 61 -27 161 0 100
2 115 27 161 67 127 203 181 347 138z"/>
<path d="M9935 2499 c-32 -5 -84 -16 -115 -25 -72 -20 -200 -82 -206 -99 -4
-9 84 -204 101 -223 1 -1 33 13 71 32 39 20 106 42 153 52 186 37 328 -15 361
-134 21 -76 31 -72 -167 -72 -331 -1 -468 -51 -540 -198 -25 -50 -28 -68 -28
-147 1 -78 5 -97 28 -142 37 -71 88 -120 161 -154 185 -87 437 -56 545 66 l31
36 0 -66 0 -65 155 0 155 0 0 363 c0 403 -6 454 -61 557 -60 113 -170 186
-323 215 -84 16 -225 18 -321 4z m375 -722 c0 -84 -37 -145 -108 -181 -164
-83 -353 -1 -318 138 20 79 89 104 289 105 l137 1 0 -63z"/>
<path d="M13325 2493 c-206 -44 -369 -183 -436 -373 -20 -55 -23 -85 -23 -195
0 -153 17 -217 91 -328 203 -305 715 -346 982 -78 171 172 211 450 98 680
-112 230 -420 357 -712 294z m295 -289 c200 -109 199 -448 -1 -559 -47 -26
-64 -30 -134 -30 -68 0 -89 4 -138 29 -159 78 -207 320 -96 482 75 110 245
145 369 78z"/>
<path d="M16355 2500 c-73 -15 -154 -51 -205 -91 l-50 -39 0 60 0 60 -160 0
-160 0 0 -565 0 -565 165 0 165 0 0 305 c0 181 4 324 11 355 16 76 64 140 129
173 50 26 63 28 141 25 103 -4 143 -26 186 -103 l28 -50 3 -352 3 -353 165 0
164 0 0 363 c0 392 -6 454 -55 553 -56 114 -172 200 -304 224 -62 12 -168 11
-226 0z"/>
<path d="M18455 2499 c-32 -5 -84 -16 -115 -25 -72 -20 -200 -82 -206 -99 -4
-9 84 -204 101 -223 1 -1 33 13 71 32 39 20 106 42 153 52 186 37 328 -15 361
-134 21 -76 31 -72 -167 -72 -331 -1 -468 -51 -540 -198 -25 -50 -28 -68 -28
-147 1 -78 5 -97 28 -142 37 -71 88 -120 161 -154 185 -87 437 -56 545 66 l31
36 0 -66 0 -65 155 0 155 0 0 363 c0 403 -6 454 -61 557 -60 113 -170 186
-323 215 -84 16 -225 18 -321 4z m375 -722 c0 -84 -37 -145 -108 -181 -164
-83 -353 -1 -318 138 20 79 89 104 289 105 l137 1 0 -63z"/>
<path d="M20665 2500 c-73 -15 -154 -51 -205 -91 l-50 -39 0 60 0 60 -160 0
-160 0 0 -565 0 -565 165 0 165 0 0 305 c0 181 4 324 11 355 16 76 64 140 129
173 50 26 63 28 141 25 103 -4 143 -26 186 -103 l28 -50 3 -352 3 -353 165 0
164 0 0 363 c0 392 -6 454 -55 553 -56 114 -172 200 -304 224 -62 12 -168 11
-226 0z"/>
<path d="M14330 2135 c0 -285 3 -371 16 -432 45 -220 189 -343 421 -360 138
-10 261 26 350 102 23 19 44 35 47 35 3 0 6 -27 6 -60 l0 -60 155 0 155 0 0
565 0 565 -164 0 -165 0 -3 -332 c-3 -323 -4 -334 -26 -383 -48 -103 -113
-144 -230 -145 -82 0 -125 15 -164 56 -61 65 -63 76 -66 457 l-3 347 -165 0
-164 0 0 -355z"/>
<path d="M19450 1925 l0 -565 165 0 165 0 0 565 0 565 -165 0 -165 0 0 -565z"/>
</g>
</svg>
