<?xml version="1.0" encoding="UTF-8" standalone="no"?>
<!DOCTYPE svg PUBLIC "-//W3C//DTD SVG 1.1//EN" "http://www.w3.org/Graphics/SVG/1.1/DTD/svg11.dtd">
<svg version="1.1" xmlns:xl="http://www.w3.org/1999/xlink" xmlns="http://www.w3.org/2000/svg" xmlns:dc="http://purl.org/dc/elements/1.1/" viewBox="77.77371 61.59548 373.01017 372.81983" width="373.01017" height="372.81983">
  <defs/>
  <g id="Canvas_1" stroke="none" stroke-opacity="1" stroke-dasharray="none" fill="none" fill-opacity="1">
    <title>Canvas 1</title>
    <g id="Canvas_1_Layer_1">
      <title>Layer 1</title>
      <g id="Graphic_3">
        <path d="M 124.95911 263.87247 C 123.77736 264.4264 122.5956 264.98032 120.89319 265.80597 C 120.07659 266.34042 119.78063 266.60315 119.48467 266.8659 C 116.05319 269.30264 112.6217 271.7394 108.72609 274.57605 C 107.11479 276.28763 105.9676 277.5993 104.82041 278.911 C 103.95479 279.76675 103.08917 280.6225 101.82889 281.88812 C 100.92189 283.18216 100.40956 284.0663 99.89725 284.95044 C 99.20476 285.8907 98.51228 286.83096 97.54286 288.23523 C 97.04812 289.09268 96.83032 289.4861 96.61251 289.87955 C 95.72813 291.3564 94.84376 292.83328 93.6832 294.84674 C 92.98406 296.5881 92.5611 297.79294 92.13814 298.99774 C 91.9877 299.29263 91.83727 299.5875 91.49982 300.3152 C 91.2176 301.1612 91.12241 301.57443 91.02721 301.98764 C 78.6983 332.44034 95.4529 370.78705 127.54642 383.8314 C 135.52953 387.0761 144.56352 388.44467 153.23479 389.1115 C 164.66658 389.9907 176.21716 389.35095 187.71657 389.3196 C 205.53139 389.27097 219.11517 376.43207 219.32837 359.48434 C 219.55238 341.67752 206.58469 328.2827 188.32591 327.8524 C 176.6661 327.57758 164.99344 327.68326 153.32962 327.84314 C 149.68982 327.893 148.34644 326.79214 148.40497 322.99655 C 148.4606 319.3889 149.82202 318.452 153.17755 318.49466 C 164.6752 318.64078 176.17578 318.5474 187.67523 318.56024 C 210.59142 318.5858 228.34987 335.3372 228.88274 357.4197 C 229.42937 380.07288 212.759 398.31406 189.67554 398.6684 C 153.68567 399.22082 117.68118 398.82516 81.6829 398.79922 C 80.5681 398.79843 79.45356 398.4428 78.10515 398.2127 C 78.02467 396.5321 78.03475 395.0469 77.86689 393.58206 C 77.49124 390.3039 78.89248 389.2053 82.14894 389.2678 C 90.812 389.4341 99.48039 389.3223 108.14666 389.32114 C 109.90199 389.3209 111.65733 389.32107 113.79998 388.16324 C 112.73434 387.31473 111.70103 386.4215 110.59843 385.6241 C 62.701675 350.9848 68.18682 281.19336 120.88085 254.97633 C 130.59924 250.1411 141.05179 248.256 152.51382 247.32298 C 163.80922 247.238 174.35255 247.29137 185.2063 247.46707 C 187.24306 247.49702 188.9694 247.40463 191.11652 247.43842 C 192.69205 247.47404 193.84677 247.3835 195.4476 247.4433 C 212.8373 247.63867 229.7809 247.72148 246.72443 247.70482 C 251.5201 247.7001 256.3155 247.40495 261.4082 247.36333 C 262.33878 247.49315 262.9722 247.50265 263.6212 247.68133 C 263.63675 247.8505 263.8777 248.09125 263.88858 248.53256 C 263.76068 251.5989 263.62192 254.22394 263.04694 256.86536 C 226.01224 256.92844 189.41362 256.9561 152.81526 257.06192 C 150.2065 257.0695 147.59941 257.6503 144.99155 257.96454 C 144.23503 257.97214 143.47853 257.97977 142.04205 258.0532 C 140.5772 258.41006 139.79231 258.70114 139.00743 258.9922 C 135.18454 260.16345 131.36165 261.33472 126.96953 262.73096 C 125.9199 263.26144 125.4395 263.56696 124.95911 263.87247 Z" fill="#35bef1"/>
      </g>
      <g id="Graphic_4">
        <path d="M 184.89587 247.34473 C 174.35255 247.29137 163.80922 247.238 153.0202 247.19348 C 144.2623 243.90678 135.38 241.3347 127.29714 237.1999 C 68.86444 207.30849 60.469 124.82549 111.44768 83.30812 C 167.5151 37.646416 249.5837 67.71459 263.09552 138.8683 C 263.34412 140.17722 263.59994 141.48477 263.98782 143.62534 C 264.12833 151.53264 264.1334 158.60757 264.02002 166.10403 C 259.08142 196.86842 244.17992 220.66263 217.1939 235.8026 C 208.49658 240.68207 198.4995 243.24477 188.7633 246.81763 C 187.25168 246.9602 186.07378 247.15247 184.89587 247.34473 Z M 109.59326 211.89067 C 127.50345 230.28868 149.03564 239.59128 174.96031 238.4897 C 223.58849 236.42342 260.30045 193.2633 254.31244 144.96262 C 249.78805 108.46803 222.86023 79.64717 186.75894 72.66013 C 151.41766 65.82015 115.58675 82.59531 97.85505 114.28273 C 80.26193 145.7225 84.46352 181.96916 109.59326 211.89067 Z" fill="#d63d5e"/>
      </g>
      <g id="Graphic_5">
        <path d="M 148.02325 283.07782 C 185.39336 283.0353 222.76344 282.9928 260.87714 282.98407 C 262.2453 283.10193 262.8699 283.18607 263.59955 283.69357 C 263.60504 286.7928 263.50546 289.4687 262.98138 292.16785 C 250.97327 292.19116 239.3896 292.19116 227.8059 292.19116 C 227.64654 292.5782 227.48717 292.9653 227.3278 293.35236 C 247.95796 307.1422 261.29108 325.4686 263.6866 351.24835 C 263.70288 356.68274 263.65243 361.50513 263.59796 366.6151 C 262.13388 373.6043 260.6738 380.30585 259.2137 387.0074 C 257.83554 389.77035 256.45737 392.53336 254.7598 395.78873 C 254.25403 396.826 254.06766 397.3709 253.8813 397.91574 C 253.8813 397.91574 253.9568 398.0025 253.65405 398.1037 C 252.8756 399.13303 252.39992 400.06113 251.92422 400.98923 C 251.92422 400.98923 251.71417 401.11804 251.4433 401.4009 C 250.72662 402.43097 250.2808 403.17825 249.835 403.92554 C 249.2858 404.4741 248.7366 405.02267 247.83177 405.97968 C 246.90535 407.22363 246.33456 408.05917 245.76376 408.8947 C 243.90878 410.6758 242.0538 412.45685 239.75424 414.6188 C 238.75673 415.61963 238.2038 416.23956 237.65088 416.8595 C 236.85133 417.38824 236.05177 417.917 234.8088 418.75323 C 233.61112 419.7159 232.8568 420.371 232.1025 421.0261 C 216.0517 431.6733 198.28198 434.64795 179.2723 434.3086 C 147.12535 433.7348 114.9606 434.10724 82.80373 434.21194 C 79.31978 434.2233 77.64008 433.5973 77.782005 429.5911 C 77.90283 426.18024 78.81665 424.92703 82.36242 424.97434 C 95.18967 425.1455 108.02065 425.0589 120.85016 425.03467 C 144.17546 424.99063 167.50581 425.20877 190.82483 424.79617 C 226.35396 424.16763 255.48413 393.78247 255.1128 358.23016 C 254.73727 322.27856 225.53832 292.86188 189.9113 292.60965 C 177.91544 292.52472 165.9179 292.51974 153.92217 292.61197 C 136.3442 292.74716 122.78341 305.98908 122.68526 322.97745 C 122.58627 340.10913 136.37622 353.87457 153.8897 354.0118 C 164.71916 354.0966 175.54985 354.0237 186.38 354.0253 C 194.32803 354.02646 194.56598 354.33746 193.02399 362.94553 C 192.15982 363.09866 191.20845 363.41306 190.25684 363.41376 C 178.09444 363.42276 165.92967 363.5283 153.77016 363.3274 C 137.54808 363.05945 125.5164 355.61645 117.33424 340.9439 C 116.74238 339.89716 116.39837 339.40222 116.05437 338.9073 C 116.03885 338.73303 116.02333 338.5588 115.8905 337.8867 C 115.56099 337.10294 115.34879 336.81708 115.13658 336.5312 C 115.05763 335.8817 114.97868 335.23227 114.78015 334.02087 C 114.4216 332.98242 114.18261 332.50595 113.94362 332.02945 C 113.87058 330.94315 113.79755 329.85687 113.67493 327.9413 C 113.5851 324.07382 113.54486 321.0356 113.50462 317.99737 C 113.70606 316.93784 113.9075 315.87833 114.29112 314.2259 C 114.55619 313.0866 114.6391 312.54025 114.72202 311.9939 C 114.9949 311.1425 115.26777 310.29108 115.75371 308.9146 C 116.2851 307.59552 116.60342 306.8015 116.92174 306.0074 C 117.19397 305.80356 117.3579 305.53387 117.66364 304.7707 C 118.39594 303.324 118.87814 302.305 119.36034 301.28595 C 119.36034 301.28595 119.25226 301.12497 119.55167 301.092 C 120.26524 300.39337 120.6794 299.72766 121.09358 299.06198 C 121.09358 299.06198 121.02075 299.00275 121.33722 298.90362 C 122.5452 297.58203 123.4367 296.3596 124.3282 295.1371 C 126.74584 293.24023 129.16348 291.34335 132.11937 289.1557 C 133.33012 288.3313 134.00263 287.7977 134.67514 287.2641 C 135.0165 287.34866 135.33354 287.29352 136.13928 286.93933 C 137.35301 286.30917 138.05377 285.83838 138.75453 285.3676 C 140.3117 285.02304 141.86887 284.6785 144.06796 284.20145 C 145.81435 283.73852 146.9188 283.40817 148.02325 283.07782 Z" fill="#36c0f3"/>
      </g>
      <g id="Graphic_6">
        <path d="M 264.1385 165.68251 C 264.1334 158.60757 264.12833 151.53264 264.13196 144.055 C 267.36737 133.55113 269.2646 122.76384 274.05975 113.47211 C 291.26474 80.13336 319.1873 62.67824 356.7955 61.990124 C 385.93014 61.457054 415.08237 61.89188 444.2268 61.87501 C 447.5997 61.87306 450.8505 61.25472 450.7409 66.66065 C 450.6382 71.72554 447.61523 71.1842 444.40924 71.18273 C 415.931 71.16967 387.45273 71.18816 358.9745 71.17316 C 315.9228 71.150505 281.95483 99.52208 274.33386 141.89224 C 267.64642 179.07213 291.1525 220.52216 326.19305 232.61034 C 327.83206 233.23886 328.91126 233.60938 329.9904 233.9799 C 332.0748 234.66728 334.15915 235.35466 336.8131 236.24207 C 337.92554 236.51935 338.46844 236.59663 339.01132 236.67392 C 339.7514 236.8221 340.49146 236.9703 341.8563 237.2863 C 343.30197 237.5479 344.12292 237.6417 344.94385 237.7355 C 346.02274 237.87064 347.1016 238.00578 348.9185 238.27194 C 351.4359 238.40262 353.2153 238.40228 354.9947 238.40198 C 357.29285 238.61488 359.5907 239.0094 361.88916 239.01312 C 390.91806 239.0602 419.947 239.051 449.51337 239.48 C 450.0197 242.518 449.9886 245.13213 449.4944 247.776 C 417.43137 247.78563 385.8315 247.78502 354.2317 247.721 C 350.2561 247.71294 346.2812 247.37112 341.9265 247.01892 C 338.12402 246.1783 334.701 245.50273 331.23065 244.80334 C 331.18323 244.77956 331.12152 244.8658 330.8938 244.61632 C 329.79184 244.1961 328.91757 244.02538 327.77417 243.62605 C 302.17682 234.3157 283.3181 217.86555 272.4011 193.22617 C 268.54874 184.5315 266.8309 174.89111 264.1385 165.68251 Z" fill="#31c1b3"/>
      </g>
      <g id="Graphic_7">
        <path d="M 426 203.2728 C 433.1649 203.2784 439.8357 203.4538 446.49265 203.2253 C 450.4763 203.08858 450.6552 205.2972 450.6695 208.27638 C 450.68366 211.21889 450.1171 212.91544 446.5681 212.90024 C 415.57736 212.76752 384.571 213.3582 353.59924 212.56512 C 324.37085 211.81668 299.74637 185.73991 299.38184 156.72943 C 298.982 124.90999 321.82953 99.77834 353.602 97.35594 C 360.23145 96.8505 366.92215 97.0956 373.5847 97.08803 C 397.41193 97.06098 421.2396 97.14265 445.06607 97.00325 C 448.9649 96.98044 450.74533 97.79632 450.74075 102.19179 C 450.7359 106.85579 448.133 106.67471 444.9257 106.6702 C 415.59994 106.6289 386.2732 106.50944 356.94846 106.69044 C 329.9293 106.8572 308.4738 128.89236 308.80133 155.75742 C 309.11603 181.56932 330.68945 203.12886 356.5177 203.2505 C 379.5113 203.35878 402.50586 203.27278 426 203.2728 Z" fill="#2dc0b3"/>
      </g>
      <g id="Graphic_8">
        <path d="M 379 282.99347 C 401.318 282.9944 423.13766 283.14084 444.95264 282.8842 C 449.8289 282.82687 450.9551 284.62842 450.6516 288.9809 C 450.4497 291.87723 449.2013 292.70477 446.57617 292.6205 C 443.24875 292.5137 439.91513 292.60428 436.58417 292.6045 C 396.11264 292.60718 355.6407 292.68906 315.17 292.5065 C 310.2786 292.4844 308.6447 293.52032 308.67337 298.79144 C 308.90866 342.09308 308.77026 385.39658 308.8828 428.6992 C 308.89276 432.5354 308.29654 434.5229 303.8044 434.3542 C 300.15442 434.21716 299.41473 432.79324 299.43518 429.5231 C 299.54034 412.7025 299.4478 395.8807 299.44446 379.05933 C 299.43854 349.0804 299.54398 319.10092 299.3509 289.12326 C 299.3199 284.31937 300.72446 282.85333 305.5524 282.8963 C 329.86664 283.11267 354.18384 282.99432 379 282.99347 Z" fill="#e68f27"/>
      </g>
      <g id="Graphic_9">
        <path d="M 366.03625 168.00893 C 392.67535 168.00717 418.82056 168.03175 444.96555 167.97073 C 448.27136 167.96301 450.7248 168.02045 450.73175 172.5547 C 450.73865 177.0566 448.6397 177.65993 444.8784 177.64574 C 417.06836 177.54076 389.2549 177.79387 361.4497 177.4132 C 356.01038 177.33876 350.064 176.00853 345.2964 173.47755 C 336.5201 168.8185 333.00656 158.25366 335.73956 148.8584 C 338.5358 139.24548 346.75763 132.89851 356.8614 132.87758 C 386.67 132.81578 416.4789 132.85284 446.2877 132.86714 C 447.4357 132.86769 448.58365 133.03253 449.6697 133.11606 C 451.9343 140.7126 451.0997 141.94864 443.8546 141.94958 C 415.87766 141.95323 387.9004 141.89853 359.9241 142.03834 C 356.86716 142.05362 353.4622 142.52858 350.8391 143.94191 C 346.09824 146.49626 343.86783 150.96196 344.4754 156.50215 C 345.0562 161.7987 348.66208 166.17361 354.13144 167.28703 C 357.83075 168.04012 361.7316 167.8031 366.03625 168.00893 Z" fill="#2ec1b5"/>
      </g>
      <g id="Graphic_10">
        <path d="M 334.96564 398 C 334.96115 373.17633 335.03873 348.8521 334.87576 324.52948 C 334.8467 320.19476 335.7 318.40088 340.63504 318.4332 C 375.45306 318.66113 410.2733 318.565 445.09283 318.5532 C 448.0295 318.5522 450.56427 318.2708 450.7336 322.7128 C 450.90985 327.33518 448.79883 327.82782 445.0658 327.8177 C 413.74515 327.7328 382.4241 327.77243 351.1032 327.78476 C 344.263 327.78744 344.2397 327.8063 344.23825 334.63983 C 344.23175 365.46097 344.23834 396.28207 344.2433 427.1032 C 344.24457 434.8606 344.0161 435.0442 334.96567 433.5633 C 334.96567 421.9828 334.96567 410.2414 334.96564 398 Z" fill="#e28e27"/>
      </g>
      <g id="Graphic_15">
        <path d="M 415.9998 363.4536 C 405.6778 363.45477 395.84976 363.6595 386.0364 363.3695 C 381.34567 363.2309 379.66214 364.5871 379.72498 369.51596 C 379.9776 389.3232 379.7676 409.1359 379.8843 428.94565 C 379.90527 432.504 379.3798 434.41403 375.0819 434.3921 C 370.914 434.37076 370.1527 432.7144 370.173 429.0279 C 370.3012 405.7222 370.3185 382.415 370.16434 359.1096 C 370.13886 355.25784 371.13696 353.8835 375.1777 353.9122 C 398.6494 354.0788 422.1231 354.0414 445.59555 353.94363 C 448.9959 353.92947 450.75574 354.52527 450.7361 358.5447 C 450.71643 362.5628 449.33646 363.61957 445.4637 363.5172 C 435.8153 363.2621 426.1552 363.44617 415.9998 363.4536 Z" fill="#e38e28"/>
      </g>
      <g id="Graphic_38">
        <path d="M 447.89807 398.85107 C 438.34573 398.8795 429.1946 398.9825 420.0468 398.85306 C 416.67026 398.8053 415.2791 399.9223 415.34735 403.45175 C 415.51477 412.10095 415.22846 420.7599 415.44797 429.4067 C 415.54077 433.0609 414.48053 434.42676 410.6872 434.3682 C 407.2314 434.3148 405.56165 433.68405 405.6361 429.70517 C 405.86014 417.7286 405.8199 405.74365 405.65094 393.76523 C 405.60083 390.21387 406.9055 389.18704 410.31433 389.2317 C 422.1267 389.38647 433.9432 389.22485 445.7557 389.3744 C 447.32144 389.39416 450.1908 390.4944 450.2011 391.13083 C 450.24356 393.7465 452.48016 397.22403 447.89807 398.85107 Z" fill="#e18d27"/>
      </g>
      <g id="Graphic_49">
        <path d="M 442.643 425.3164 C 445.51953 425.7192 448.73813 425.5695 450.2406 427.10214 C 451.26413 428.1463 450.6954 432.5759 449.369 433.6141 C 447.878 434.78113 443.0183 434.56155 442.6421 433.67065 C 441.6441 431.30746 442.27246 428.25754 442.643 425.3164 Z" fill="#da8d2f"/>
      </g>
      <g id="Graphic_81">
        <path d="M 264.52066 433.95627 C 263.9366 411.60245 263.80368 389.27493 263.63635 366.63745 C 263.65243 361.50513 263.70288 356.68274 263.7349 351.05792 C 263.78656 335.99905 263.90802 321.7426 263.8994 307.48624 C 263.89633 302.37222 263.57953 297.25845 263.40588 292.14456 C 263.50546 289.4687 263.60504 286.7928 263.59955 283.69357 C 263.5881 274.77185 263.68173 266.27347 263.62924 257.31204 C 263.62192 254.22394 263.76068 251.5989 264.36414 248.46353 C 288.52747 247.8829 312.22617 247.8263 335.9247 247.71884 C 338.05255 247.70918 340.17892 247.3701 342.306 247.18397 C 346.2812 247.37112 350.2561 247.71294 354.2317 247.721 C 385.8315 247.78502 417.43137 247.78563 449.4944 247.776 C 450.0958 248.56616 450.31293 249.38155 450.35995 250.20662 C 450.73517 256.78644 450.5158 257.0439 444.05057 257.04446 C 389.7312 257.04898 335.41186 257.04684 281.0925 257.03195 C 273.241 257.02982 273.23993 256.99356 273.2398 264.85913 C 273.23895 318.67874 273.24155 372.49835 273.23496 426.31796 C 273.23398 434.379 273.21435 434.379 264.52066 433.95627 Z" fill="#e79126"/>
      </g>
      <g id="Graphic_100">
        <path d="M 166.40103 97.34604 C 193.7397 95.73795 218.18036 111.9914 225.9958 136.64984 C 234.39851 163.16127 224.34177 190.13444 200.63652 204.66576 C 174.73222 220.54507 140.5703 212.74586 122.89046 186.91628 C 106.05226 162.31627 112.11151 126.9541 136.09454 109.00948 C 145.01442 102.33544 154.90785 98.46242 166.40103 97.34604 Z M 188.41284 200.09454 C 208.26605 192.04246 219.57747 174.92523 219.31387 153.33298 C 219.0277 129.89268 200.5372 109.87624 176.49115 106.97628 C 153.25386 104.17386 130.57217 119.37592 124.64745 141.69652 C 119.72321 160.2479 124.12574 176.58621 137.73996 189.729 C 151.88844 203.38753 168.94562 206.59012 188.41284 200.09454 Z" fill="#d53d5e"/>
      </g>
      <g id="Graphic_102">
        <path d="M 161.90478 134.60165 C 173.5821 130.7662 183.82 133.80121 189.66876 142.55313 C 195.13502 150.73271 194.613 161.50024 188.38467 169.03914 C 182.56625 176.08186 173.20749 178.93364 164.52615 176.30928 C 155.8412 173.6838 149.4338 165.7794 148.51819 156.56126 C 147.68657 148.18872 152.98726 139.32748 161.90478 134.60165 Z M 160.16635 147.89757 C 157.03744 152.99284 157.16014 158.10184 160.74277 162.79573 C 163.89842 166.9302 168.3314 168.68262 173.53728 167.64416 C 179.08846 166.53684 183.44208 161.71683 184.018 156.3588 C 184.61382 150.81592 181.51454 145.57182 176.18863 143.11113 C 170.85358 140.64621 165.53038 142.06494 160.16635 147.89757 Z" fill="#d63d5e"/>
      </g>
    </g>
  </g>
</svg>
