<svg width="40" height="40" viewBox="0 0 40 40" fill="none" xmlns="http://www.w3.org/2000/svg">
<rect width="40" height="40" fill="#339C4D"/>
<path d="M29.764 15H29.3731V24.1429H29.764V15Z" fill="#FDFDFE"/>
<path d="M6.92312 19.9771H5.68518L4.93383 21.8961H4L5.89985 17.1934H6.70129L8.60115 21.8961H7.67448L6.92312 19.9771ZM6.297 18.3251C6.13003 18.8172 5.98095 19.2284 5.84976 19.5588L5.68518 19.9771H6.92312L6.75854 19.5588C6.62736 19.2261 6.47828 18.8149 6.31131 18.3251H6.297Z" fill="#FDFDFE"/>
<path d="M13.0422 18.4446C13.0422 18.6485 12.9957 18.836 12.9026 19.007C12.8096 19.1757 12.6558 19.3163 12.4411 19.4288V19.4428C12.5604 19.4827 12.6689 19.5342 12.7667 19.5975C12.8669 19.6584 12.9515 19.7322 13.0207 19.8189C13.0923 19.9033 13.1471 19.9993 13.1853 20.1071C13.2259 20.2149 13.2461 20.3356 13.2461 20.4692C13.2461 20.584 13.227 20.707 13.1889 20.8382C13.1531 20.9694 13.0887 21.0971 12.9957 21.2213C12.9026 21.3432 12.7786 21.4556 12.6236 21.5587C12.4685 21.6618 12.2729 21.7438 12.0368 21.8048C11.9772 21.8188 11.9116 21.8317 11.84 21.8434C11.7708 21.8551 11.6933 21.8657 11.6075 21.8751C11.5216 21.8821 11.4262 21.8879 11.3212 21.8926C11.2163 21.895 11.0982 21.8962 10.967 21.8962H9.57523V17.1934H11.2389C11.5943 17.1934 11.8806 17.2285 12.0976 17.2988C12.2598 17.3504 12.4006 17.4183 12.5198 17.5027C12.6391 17.5847 12.7369 17.6773 12.8132 17.7804C12.8919 17.8811 12.9492 17.9889 12.9849 18.1037C13.0231 18.2162 13.0422 18.3298 13.0422 18.4446ZM10.4518 19.8505V21.1756H11.0243C11.1769 21.1756 11.3081 21.1721 11.4178 21.1651C11.5276 21.1557 11.6218 21.1416 11.7005 21.1229C11.8221 21.0971 11.9235 21.0631 12.0046 21.021C12.0857 20.9765 12.1513 20.9272 12.2014 20.8733C12.2515 20.8171 12.2873 20.7562 12.3087 20.6906C12.3302 20.6226 12.3409 20.5512 12.3409 20.4762C12.3409 20.345 12.304 20.2301 12.23 20.1317C12.1561 20.0333 12.0404 19.9595 11.883 19.9103C11.8138 19.8892 11.7327 19.874 11.6397 19.8646C11.5466 19.8552 11.4274 19.8505 11.2819 19.8505H10.4518ZM11.2425 19.13C11.481 19.13 11.6587 19.1066 11.7756 19.0597C11.9068 19.0058 11.9998 18.932 12.0547 18.8383C12.1119 18.7422 12.1406 18.6344 12.1406 18.5149C12.1406 18.3907 12.1084 18.2806 12.044 18.1845C11.9796 18.0861 11.8698 18.0135 11.7148 17.9666C11.6504 17.9479 11.5753 17.935 11.4894 17.928C11.4035 17.9186 11.2974 17.9139 11.171 17.9139H10.4518V19.13H11.2425Z" fill="#FDFDFE"/>
<path d="M16.4099 21.984C16.1594 21.984 15.934 21.9594 15.7336 21.9102C15.5333 21.8633 15.3568 21.7954 15.2041 21.7064C15.0515 21.615 14.9215 21.5048 14.8141 21.376C14.7068 21.2447 14.6209 21.0971 14.5565 20.9331C14.5041 20.8019 14.4659 20.6566 14.442 20.4973C14.4206 20.3379 14.4098 20.1599 14.4098 19.963V17.1934H15.2864V19.8857C15.2864 20.2184 15.327 20.4785 15.4081 20.666C15.4987 20.8745 15.6311 21.0257 15.8052 21.1194C15.9793 21.2108 16.1845 21.2565 16.4206 21.2565C16.6567 21.2565 16.8619 21.2108 17.036 21.1194C17.2101 21.0257 17.3425 20.8745 17.4331 20.666C17.5142 20.4785 17.5548 20.2184 17.5548 19.8857V17.1934H18.4314V19.963C18.4314 20.1599 18.4194 20.3379 18.3956 20.4973C18.3741 20.6566 18.3371 20.8019 18.2847 20.9331C18.2203 21.0971 18.1332 21.2447 18.0235 21.376C17.9162 21.5048 17.7838 21.615 17.6263 21.7064C17.4713 21.7954 17.2924 21.8633 17.0897 21.9102C16.8869 21.9594 16.6603 21.984 16.4099 21.984Z" fill="#FDFDFE"/>
<path d="M22.2069 20.5465C22.2069 20.427 22.1771 20.3309 22.1175 20.2583C22.0578 20.1833 21.9767 20.1224 21.8742 20.0755C21.7716 20.0286 21.6559 19.9911 21.5271 19.963C21.4007 19.9326 21.2671 19.9033 21.1264 19.8752C20.9404 19.8353 20.7627 19.7885 20.5933 19.7346C20.4239 19.6783 20.2749 19.6022 20.1461 19.5061C20.0173 19.4077 19.9147 19.2835 19.8384 19.1335C19.762 18.9836 19.7239 18.7961 19.7239 18.5712C19.7239 18.3228 19.768 18.1072 19.8563 17.9245C19.9445 17.7393 20.0638 17.587 20.2141 17.4675C20.3667 17.3457 20.5444 17.2555 20.7472 17.1969C20.9523 17.136 21.1825 17.1055 21.4377 17.1055C21.6929 17.1055 21.9493 17.1301 22.2069 17.1793C22.4645 17.2285 22.6864 17.2918 22.8724 17.3691V18.1072C22.6243 18.0112 22.3858 17.942 22.1568 17.8998C21.9302 17.8553 21.7168 17.8331 21.5164 17.8331C21.2278 17.8331 21.0048 17.8846 20.8473 17.9877C20.6923 18.0908 20.6148 18.2455 20.6148 18.4517C20.6148 18.5712 20.6398 18.6696 20.6899 18.7469C20.7424 18.8242 20.8127 18.8887 20.901 18.9402C20.9893 18.9894 21.0906 19.0293 21.2051 19.0597C21.3196 19.0902 21.4413 19.1183 21.5701 19.1441C21.7728 19.1863 21.966 19.2355 22.1497 19.2917C22.3357 19.3456 22.5003 19.4217 22.6434 19.5202C22.7865 19.6186 22.8998 19.7475 22.9833 19.9068C23.0668 20.0638 23.1085 20.2653 23.1085 20.5113C23.1085 20.7644 23.0608 20.9835 22.9654 21.1686C22.87 21.3537 22.7341 21.5072 22.5576 21.629C22.3834 21.7485 22.1711 21.8376 21.9207 21.8961C21.6702 21.9547 21.3959 21.984 21.0978 21.984C20.8378 21.984 20.5814 21.9582 20.3285 21.9067C20.0781 21.8575 19.8694 21.7872 19.7024 21.6958V20.9682C19.9386 21.069 20.1687 21.1428 20.3929 21.1897C20.6172 21.2342 20.8485 21.2565 21.087 21.2565C21.2254 21.2565 21.3614 21.2459 21.4949 21.2248C21.6285 21.2014 21.7478 21.1627 21.8527 21.1088C21.96 21.0549 22.0459 20.9823 22.1103 20.8909C22.1747 20.7972 22.2069 20.6824 22.2069 20.5465Z" fill="#FDFDFE"/>
<path d="M25.2526 21.1756H27.6068V21.8961H24.376V17.1934H27.478V17.9139H25.2526V19.13H27.1632V19.8505H25.2526V21.1756Z" fill="#FDFDFE"/>
<path d="M32.6838 17.0865C32.7924 17.0865 32.8964 17.0981 32.9956 17.1213C33.0949 17.143 33.1799 17.1739 33.2508 17.2142V17.5136C33.1516 17.4765 33.0602 17.4486 32.9767 17.43C32.8933 17.4115 32.8082 17.4022 32.7216 17.4022C32.6302 17.4022 32.5396 17.4169 32.4498 17.4463C32.3601 17.4757 32.2797 17.5244 32.2088 17.5925C32.1379 17.6591 32.0805 17.748 32.0363 17.8594C31.9938 17.9693 31.9726 18.1063 31.9726 18.2703C31.9726 18.3894 31.9883 18.4993 32.0198 18.5999C32.0529 18.7005 32.1009 18.7879 32.1639 18.8622C32.2285 18.9349 32.3089 18.9922 32.4049 19.0339C32.501 19.0742 32.6121 19.0943 32.7381 19.0943C32.8295 19.0943 32.9216 19.085 33.0145 19.0664C33.1075 19.0463 33.1981 19.0185 33.2863 18.9829V19.2823C33.2595 19.2978 33.224 19.3132 33.1799 19.3287C33.1374 19.3442 33.0902 19.3573 33.0382 19.3682C32.9862 19.3806 32.9311 19.3898 32.8728 19.396C32.8145 19.4038 32.7562 19.4076 32.6979 19.4076C32.5467 19.4076 32.4034 19.3852 32.2679 19.3403C32.134 19.2955 32.0167 19.2266 31.9158 19.1337C31.815 19.0409 31.7355 18.9233 31.6772 18.7809C31.6189 18.6386 31.5898 18.4699 31.5898 18.2749C31.5898 18.1295 31.6047 17.9987 31.6347 17.8827C31.6662 17.7666 31.7087 17.6645 31.7623 17.5763C31.8158 17.4881 31.878 17.413 31.9489 17.3511C32.0214 17.2892 32.0978 17.2389 32.1781 17.2002C32.26 17.16 32.3443 17.1314 32.4309 17.1144C32.5176 17.0958 32.6018 17.0865 32.6838 17.0865Z" fill="#FDFDFE"/>
<path d="M34.5232 17.4463H34.5303C34.5713 17.3952 34.617 17.348 34.6674 17.3047C34.7178 17.2598 34.7737 17.2219 34.8351 17.191C34.8966 17.1585 34.9627 17.1329 35.0336 17.1144C35.1045 17.0958 35.1809 17.0865 35.2628 17.0865C35.3479 17.0865 35.4329 17.0981 35.518 17.1213C35.603 17.143 35.6818 17.1824 35.7543 17.2397C35.8267 17.297 35.8858 17.3766 35.9315 17.4788C35.9772 17.5809 36 17.7124 36 17.8734V19.3496H35.6338V17.9314C35.6338 17.7534 35.5991 17.6196 35.5298 17.5298C35.4621 17.4401 35.3502 17.3952 35.1943 17.3952C35.0651 17.3952 34.9422 17.43 34.8257 17.4997C34.7091 17.5678 34.6083 17.6621 34.5232 17.7828V19.3496H34.157V15.9886H34.5232V17.4463Z" fill="#FDFDFE"/>
</svg>
